<svg id="Raggruppa_132" data-name="Raggruppa 132" xmlns="http://www.w3.org/2000/svg" xmlns:xlink="http://www.w3.org/1999/xlink" width="156.275" height="60.39" viewBox="0 0 156.275 60.39">
  <defs>
    <clipPath id="clip-path">
      <rect id="Rettangolo_37" data-name="Rettangolo 37" width="156.276" height="60.39" fill="none"/>
    </clipPath>
  </defs>
  <g id="Raggruppa_124" data-name="Raggruppa 124" clip-path="url(#clip-path)">
    <path id="Tracciato_380" data-name="Tracciato 380" d="M14.879,0H0V60.376H11.435s0,.009,0,.014H50.927v-.014H67.061c0-13.322,0-49.527,0-59.818,0-.186.012-.372.018-.558Z" transform="translate(-0.001)" fill="#fff"/>
    <path id="Tracciato_381" data-name="Tracciato 381" d="M144.926,60.391a.578.578,0,0,1,.085-.456,5.09,5.09,0,0,0,.235-.506,7.9,7.9,0,0,0,.483-3.013c-.046-.73-.118-1.459-.107-2.193a.984.984,0,0,1,.4-.829,6.6,6.6,0,0,1,.693-.469c.74-.421,1.482-.841,2.235-1.239a4.826,4.826,0,0,0,2.45-3.057c.044-.153.09-.306.125-.462a1.665,1.665,0,0,0,.01-.714c-.036-.176-.112-.327-.347-.323a1.768,1.768,0,0,0-.174.524,2.463,2.463,0,0,1-1.382,1.755,5.876,5.876,0,0,1-.811.332,3.629,3.629,0,0,1-1.733.142,1.664,1.664,0,0,1-1.377-1.181,5.167,5.167,0,0,1-.216-2.169,2.744,2.744,0,0,1,.148-.66,1.166,1.166,0,0,1,1.393-.717,1.22,1.22,0,0,1,.877.8c.045.11.071.229.12.338a.636.636,0,0,0,.785.37,2.067,2.067,0,0,0,.3-.1c.292-.128.584-.257.871-.4a.868.868,0,0,1,.805-.018.721.721,0,0,0,.145.066.653.653,0,0,0,.147,0c0-.053.009-.083,0-.1a.532.532,0,0,0-.089-.129c-.1-.1-.223-.192-.318-.3a.884.884,0,0,1-.205-.669.612.612,0,0,1,.306-.487.575.575,0,0,0,.222-.363,1.247,1.247,0,0,0-.193-1.064,5.546,5.546,0,0,0-.388-.507.706.706,0,0,1-.118-.714,1.74,1.74,0,0,1,.21-.381c.057-.089.137-.164.2-.252a.952.952,0,0,0,.024-1.154,1.355,1.355,0,0,1-.187-.393.613.613,0,0,1,.365-.75c.269-.112.549-.2.825-.3.125-.044.257-.071.378-.124a1.063,1.063,0,0,0,.628-1.276.406.406,0,0,0-.059-.1,1.946,1.946,0,0,0-.214.087,2.792,2.792,0,0,1-1.061.327,5.457,5.457,0,0,0-2.067.694c-.277.159-.556.316-.84.463a3.834,3.834,0,0,1-.547.24.893.893,0,0,1-.959-.219,3.914,3.914,0,0,1-.26-.3.775.775,0,0,0-.386-.272.277.277,0,0,0-.188.01.5.5,0,0,0-.1.722,2.17,2.17,0,0,0,.382.288,3.606,3.606,0,0,1,.9.723.892.892,0,0,0,.552.3c.118.019.24.013.357.034q.372.066.741.15a.439.439,0,0,1,.343.437.72.72,0,0,1-.042.312,2.328,2.328,0,0,1-.241.5,2.911,2.911,0,0,1-2.482,1.433,1.2,1.2,0,0,0-.641.193c-.136.083-.269.172-.4.257a2.8,2.8,0,0,1-.732.31.924.924,0,0,1-.8-.121,1.578,1.578,0,0,1-.359-.312,1.727,1.727,0,0,0-1.25-.625,4.108,4.108,0,0,1-.931-.209c-.935-.311-1.869-.621-2.8-.938a43.548,43.548,0,0,1-4.223-1.579,7.17,7.17,0,0,1-.812-.427,2.252,2.252,0,0,1-.971-1.23,6.947,6.947,0,0,1-.367-2.751,1.926,1.926,0,0,1,.022-.2c.083-.445.327-.583.747-.421.112.043.221.091.331.139a.451.451,0,0,0,.387,0,2.591,2.591,0,0,1,1.171-.2.56.56,0,0,0,.3-.028.362.362,0,0,0-.031-.1q-.665-.8-1.331-1.595a.4.4,0,0,0-.35-.151,3.381,3.381,0,0,1-.595.011c-.435-.052-.868-.13-1.3-.2a1.423,1.423,0,0,1-.232-.059.287.287,0,0,1-.192-.276c0-.111.085-.159.176-.192.137-.05.276-.095.415-.142a.606.606,0,0,0,.443-.516,2.512,2.512,0,0,0,.007-.593,1.941,1.941,0,0,0-.278-.743c-.12-.207-.233-.418-.349-.628a2.37,2.37,0,0,1-.248-.755c-.036-.21.015-.289.224-.346a1.4,1.4,0,0,1,.709-.028c.245.058.5.084.747.12a.672.672,0,0,0,.517-.163c.222-.168.458-.318.688-.475.143-.1.293-.186.429-.292.884-.686,1.775-1.364,2.645-2.066a12.794,12.794,0,0,0,2.339-2.45,2.866,2.866,0,0,0,.45-.884,2.649,2.649,0,0,1,.693-1.151c.2-.2.4-.391.6-.586a1.761,1.761,0,0,0,.5-.891,2.669,2.669,0,0,0-.049-1.225.337.337,0,0,0-.288-.247.624.624,0,0,0-.53.108,1.746,1.746,0,0,0-.591.835,2.157,2.157,0,0,1-.795,1.074c-.15.11-.29.235-.428.359a7.122,7.122,0,0,1-.943.737,1.733,1.733,0,0,0-.308.252.234.234,0,0,0-.008.355c.086.1.185.192.271.293a.2.2,0,0,1-.019.313.523.523,0,0,1-.545.158c-.281-.081-.566-.151-.841-.248a.786.786,0,0,0-.754.1c-.231.156-.48.286-.721.426a1.72,1.72,0,0,1-.834.243,1.76,1.76,0,0,0-.284.058c.038.1.068.173.091.246.058.181.015.284-.166.332a2.308,2.308,0,0,1-.548.1c-.332.006-.666-.01-1-.037a1.03,1.03,0,0,0-.434.019c-.175.061-.348.126-.519.2a4.506,4.506,0,0,1-.621.267c-.53.131-.63.034-.792-.349a1.9,1.9,0,0,0-.234-.415.4.4,0,0,0-.569-.088.88.88,0,0,0-.417.606c-.038.212,0,.277.194.383a7.039,7.039,0,0,1,.739.393,3.11,3.11,0,0,0,1.152.527,1.336,1.336,0,0,1,.4.178c.136.082.132.217.015.334a.435.435,0,0,1-.326.124,1.937,1.937,0,0,1-1.374-.438.685.685,0,0,0-.81-.129,3.216,3.216,0,0,1-1.278.277,1.351,1.351,0,0,0-.311.057.241.241,0,0,0-.175.24.556.556,0,0,0,.218.527c.191.144.376.3.564.445a.443.443,0,0,1,.171.459,1.567,1.567,0,0,1-.41.849c-.065.066-.137.128-.2.2a.389.389,0,0,0,.166.621.7.7,0,0,0,.31.029,2.644,2.644,0,0,0,.76-.235c.243-.107.49-.207.742-.29a1.456,1.456,0,0,1,1.645.6,2.269,2.269,0,0,1,.394,1.236.564.564,0,0,1-.153.435c-.482.533-.957,1.073-1.435,1.61a.673.673,0,0,1-.481.25,2.439,2.439,0,0,0-.433.071.731.731,0,0,0-.574.492.792.792,0,0,0,.247.317.428.428,0,0,1,.1.475.919.919,0,0,1-.51.582,5.187,5.187,0,0,1-2,.518,4.865,4.865,0,0,1-2.99-.951,1.3,1.3,0,0,1-.318-.349.346.346,0,0,1,.312-.505.981.981,0,0,1,.265.076,3.771,3.771,0,0,0,.445.174,6.159,6.159,0,0,0,2.066.065c.052-.006.1-.032.154-.042a.348.348,0,0,0,.283-.249,2.489,2.489,0,0,1,.122-.337c.179-.356.356-.714.552-1.061a1.344,1.344,0,0,0,.191-.84.276.276,0,0,0-.288-.274,2.228,2.228,0,0,0-.476.03c-.313.06-.626.128-.933.214a6.037,6.037,0,0,1-3.423-.082,2.483,2.483,0,0,1-1.163-.74,4.136,4.136,0,0,1-.891-1.453,1.684,1.684,0,0,0-.885-1.031,4.347,4.347,0,0,0-.407-.162c-.3-.109-.609-.2-.9-.325a3.2,3.2,0,0,1-1.8-1.874c-.014-.037-.012-.086-.036-.113a.452.452,0,0,0-.174-.145c-.086-.025-.142.053-.177.128a1.047,1.047,0,0,0,.081,1.1,2.165,2.165,0,0,0,.182.211.726.726,0,0,1,.126.85,4.206,4.206,0,0,1-.636,1.01,2.371,2.371,0,0,1-.246.262.591.591,0,0,1-.8.015.536.536,0,0,1-.087-.082.464.464,0,0,0-.474-.137c-.078.013-.153.045-.231.061a.507.507,0,0,1-.618-.31,1.951,1.951,0,0,1-.11-.3,7.22,7.22,0,0,1-.237-2.57,4.107,4.107,0,0,1,.138-.7,1.445,1.445,0,0,1,.781-.96,3.7,3.7,0,0,0,.48-.285.575.575,0,0,0,.259-.723,2.943,2.943,0,0,1-.112-.586,1.1,1.1,0,0,1,.4-1.066.669.669,0,0,0,.269-.594c0-.24,0-.479,0-.719a.684.684,0,0,1,.323-.606,1.632,1.632,0,0,1,.8-.333.637.637,0,0,0,.584-.4,1.742,1.742,0,0,1,.637-.649.791.791,0,0,1,.684-.118c.166.05.332.1.5.143a1.817,1.817,0,0,0,.311.065c.3.025.413-.052.494-.339a3.188,3.188,0,0,0,.071-.351c.051-.315.106-.63.145-.946a.637.637,0,0,1,.322-.476,1.482,1.482,0,0,1,1.227-.178,1.753,1.753,0,0,0,1.1-.045,1.18,1.18,0,0,1,.27-.066.287.287,0,0,1,.3.157,1.185,1.185,0,0,1,.11.3c.039.168.059.34.093.51a2.469,2.469,0,0,0,.335,1.013,2.1,2.1,0,0,1,.349,1.443c-.022.278-.029.56-.074.834a.721.721,0,0,0,.342.75,1.615,1.615,0,0,0,.2.133,10.632,10.632,0,0,1,1.365.9,1.226,1.226,0,0,0,1.552-.008c.159-.121.318-.242.476-.364a1.17,1.17,0,0,1,.7-.261c.333-.011.665-.04,1-.065a.831.831,0,0,0,.234-.039,2.1,2.1,0,0,0,.815-.487,2.483,2.483,0,0,1,1.2-.678,5.417,5.417,0,0,0,.679-.23,1.683,1.683,0,0,0,.817-.679,2.205,2.205,0,0,1,.8-.76c.252-.149.5-.3.752-.454a3.528,3.528,0,0,0,1.173-1.178.443.443,0,0,0-.138-.688c-.118-.084-.257-.14-.383-.214s-.252-.092-.32-.227a.366.366,0,0,1,.28-.3c.149-.055.305-.09.458-.133l.347-.1a.524.524,0,0,0,.081-.419c-.02-.185-.039-.371-.066-.555a1.416,1.416,0,0,1,.263-1.057c.147-.206.3-.41.44-.619.083-.12.16-.245.232-.372a1.244,1.244,0,0,0,.1-.854.455.455,0,0,0-.241-.348.181.181,0,0,0-.247.053,3.285,3.285,0,0,0-.153.366c-.124.322-.24.648-.369.968a1.308,1.308,0,0,1-.353.478.526.526,0,0,1-.655.111,1.238,1.238,0,0,0-.821-.062c-.144.024-.288.055-.429.092a1.125,1.125,0,0,1-.982-.195,4.271,4.271,0,0,1-1.242-1.225.834.834,0,0,0-.608-.408c-.249-.041-.5-.088-.747-.126-.2-.031-.394-.062-.593-.077a4.123,4.123,0,0,0-1.146.134,2.771,2.771,0,0,0-.817.309c-.231.132-.464.263-.7.381a1.864,1.864,0,0,1-.883.219c-.366-.009-.5-.11-.594-.459a1.833,1.833,0,0,1,.462-1.773,3.082,3.082,0,0,1,1.105-.771,5.134,5.134,0,0,1,1.381-.376,6.033,6.033,0,0,1,1.75.01,6.665,6.665,0,0,0,1.4.043.438.438,0,0,0,.363-.211c.1-.156.2-.314.306-.467a2.31,2.31,0,0,1,1.823-1,5.43,5.43,0,0,0,1.595-.338,2.211,2.211,0,0,1,1.636-.007c.125.046.253.082.378.128a2.667,2.667,0,0,0,1.415.09c.339-.061.686-.09,1.03-.117a1.065,1.065,0,0,1,.8.3c.149.132.277.287.42.426a.66.66,0,0,1,.206.652c-.014.065-.015.132-.028.2a1.329,1.329,0,0,1-1,1.119c-.1.027-.207.047-.31.073a4.054,4.054,0,0,0-.461.125.4.4,0,0,0-.107.7.715.715,0,0,0,.4.173c.265.025.53.059.8.073a1.093,1.093,0,0,1,.883.54.549.549,0,0,1,.068.3,1.047,1.047,0,0,1-.08.306,1.982,1.982,0,0,1-.508.755c-.22.216-.224.258-.073.516a2.456,2.456,0,0,1,.318,1.142c0,.053,0,.107.006.16a.652.652,0,0,0,.344.55q.1.059.213.11a21.945,21.945,0,0,1,2.746,1.628.949.949,0,0,1,.239.209,1.135,1.135,0,0,1,.19.345.378.378,0,0,1-.443.488,2.5,2.5,0,0,1-.452-.156c-.185-.076-.361-.172-.547-.242a1.333,1.333,0,0,0-.386-.09.417.417,0,0,0-.468.43.706.706,0,0,0,.086.383,2.358,2.358,0,0,1,.232.842,3.3,3.3,0,0,0,.627,1.617q.8,1.121,1.568,2.266c.252.375.484.765.7,1.163a5.926,5.926,0,0,1,.672,1.953c.036.25.041.5.063.755.07.8.137,1.59.214,2.385a2.422,2.422,0,0,0,.689,1.9c.533.714,1.12,1.388,1.689,2.075a3.515,3.515,0,0,0,.374.358c.035.032.084.075.15.005-.038-.125-.151-.2-.227-.305a4.514,4.514,0,0,1-.329-.449.347.347,0,0,1,.16-.534,1.181,1.181,0,0,1,.773-.135c.157.027.312.069.466.108a10.823,10.823,0,0,1,1.568.589c1.052.45,2.123.856,3.129,1.408a3.894,3.894,0,0,0,.594.229.533.533,0,0,0,.4,0,1.376,1.376,0,0,0,.037-.545q0-16.4,0-32.791c0-.186.012-.372.018-.558M134.985,30.709h.04c0-.226.017-.453,0-.677a.444.444,0,0,0-.654-.4,2.011,2.011,0,0,0-.22.093.519.519,0,0,1-.629-.064,1.056,1.056,0,0,0-.875-.152.19.19,0,0,0-.167.2.539.539,0,0,0,.021.235,4.664,4.664,0,0,0,.427.9c.516.71,1.07,1.392,1.614,2.081a.569.569,0,0,0,.4.237.6.6,0,0,0,.263-.053.586.586,0,0,0,.148-.131c.058-.054.114-.112.175-.164a.355.355,0,0,1,.409-.053c.128.062.175.193.134.382-.029.129-.086.254-.1.384a4.366,4.366,0,0,0-.039.593.376.376,0,0,0,.227.35,4.6,4.6,0,0,0,.44.185,2.545,2.545,0,0,0,1.108.063c.423-.04.845-.1,1.264-.174a1.429,1.429,0,0,1,.78.1c.124.048.244.106.363.164a.944.944,0,0,0,.585.083,3.542,3.542,0,0,0,1.928-.974.654.654,0,0,0,.21-.5c0-.213.006-.426,0-.638a.361.361,0,0,1,.258-.4,5.1,5.1,0,0,0,.475-.207,5.558,5.558,0,0,0,1.645-1.246,1.581,1.581,0,0,0,.439-1.2,2.491,2.491,0,0,0-.414-1.232,1.072,1.072,0,0,0-.59-.453,2.86,2.86,0,0,0-.541-.128,4.783,4.783,0,0,0-2.048.21,6.221,6.221,0,0,0-1.97,1.114c-.878.713-1.747,1.438-2.624,2.153a3.574,3.574,0,0,1-.518.371,1.953,1.953,0,0,1-1.5.228.478.478,0,0,1-.335-.259,1.342,1.342,0,0,1-.117-.417c-.019-.2,0-.4,0-.6M115.817,21.94a2.76,2.76,0,0,0,.2.249c.375.359.747.721,1.133,1.068a7.083,7.083,0,0,0,1.136.811,2.951,2.951,0,0,0,.769.328,1.291,1.291,0,0,0,.632.038.5.5,0,0,0,.386-.494c.021-.281-.042-.378-.316-.474-.126-.044-.254-.08-.381-.119a4.265,4.265,0,0,1-.947-.419,2.773,2.773,0,0,1-1.322-1.821,4.042,4.042,0,0,1-.1-1.03c0-.084.041-.187-.077-.26a.571.571,0,0,0-.094.119c-.052.122-.1.248-.14.373a3.9,3.9,0,0,1-.613,1.158,3.416,3.416,0,0,0-.265.472m3.083-1.269c.066.127.2.167.312.234a3.141,3.141,0,0,1,1.19,1.26,3.256,3.256,0,0,0,.228.373.794.794,0,0,0,.161.129.55.55,0,0,0,.009-.414,2.9,2.9,0,0,0-1.038-1.522,1.837,1.837,0,0,0-.422-.22.616.616,0,0,0-.233-.038.188.188,0,0,0-.206.2m19.222-6.42a1.132,1.132,0,0,0,.308.093.327.327,0,0,0,.2-.107,2.827,2.827,0,0,0,.372-.46,1.392,1.392,0,0,0,.145-1.182.116.116,0,0,0-.212-.045.234.234,0,0,0-.027.029,5.923,5.923,0,0,0-.682,1.249c-.042.122-.064.251-.106.422m-8.5,7.732a.3.3,0,0,0-.367-.02c-.323.183-.646.366-.967.553a.739.739,0,0,0-.325.341.916.916,0,0,0-.063.3.148.148,0,0,0,.2.123.348.348,0,0,0,.071-.035c.362-.247.727-.488,1.082-.744a.925.925,0,0,0,.364-.524m-13.2,3.008a.42.42,0,0,0,.451-.476.4.4,0,0,0-.447-.435.447.447,0,0,0-.414.485.39.39,0,0,0,.41.426M133.664,11.2a1.555,1.555,0,0,0,.259.095.361.361,0,0,0,.39-.209.349.349,0,0,0-.086-.432c-.208-.2-.422-.155-.513.124a2.191,2.191,0,0,0-.049.423m1.249,9.886c.113-.075.2-.126.281-.189q.217-.171.425-.355a.128.128,0,0,0,.037-.108c-.014-.041-.06-.1-.089-.1a.832.832,0,0,0-.687.574c-.01.043.017.094.034.181" transform="translate(-89.438 -0.001)" fill="#fff"/>
    <path id="Tracciato_382" data-name="Tracciato 382" d="M67.081,0c-.006.186-.018.372-.018.558q0,16.4,0,32.791a1.377,1.377,0,0,1-.037.545.534.534,0,0,1-.4,0,3.91,3.91,0,0,1-.594-.229c-1.006-.552-2.078-.958-3.129-1.408a10.834,10.834,0,0,0-1.568-.589c-.154-.04-.309-.081-.466-.108a1.182,1.182,0,0,0-.773.136.347.347,0,0,0-.16.534,4.538,4.538,0,0,0,.329.449c.077.1.19.18.227.305-.066.069-.115.026-.15-.005a3.534,3.534,0,0,1-.374-.358c-.569-.687-1.156-1.361-1.689-2.075a2.422,2.422,0,0,1-.689-1.9c-.078-.794-.144-1.59-.214-2.385-.022-.252-.027-.506-.063-.755a5.926,5.926,0,0,0-.672-1.953c-.214-.4-.446-.788-.7-1.163q-.767-1.144-1.568-2.266a3.3,3.3,0,0,1-.627-1.617,2.354,2.354,0,0,0-.232-.842.7.7,0,0,1-.086-.383.417.417,0,0,1,.468-.43,1.338,1.338,0,0,1,.386.09c.186.071.363.167.548.242a2.505,2.505,0,0,0,.452.155.378.378,0,0,0,.443-.488,1.125,1.125,0,0,0-.19-.345.945.945,0,0,0-.239-.209,22,22,0,0,0-2.746-1.628c-.072-.033-.143-.07-.213-.11A.652.652,0,0,1,51.992,14c0-.053,0-.106-.006-.159a2.456,2.456,0,0,0-.318-1.142c-.151-.259-.147-.3.073-.516a1.983,1.983,0,0,0,.508-.755,1.054,1.054,0,0,0,.08-.306.548.548,0,0,0-.068-.3,1.093,1.093,0,0,0-.884-.54c-.266-.015-.53-.049-.8-.073a.716.716,0,0,1-.4-.173.4.4,0,0,1,.107-.7,4.012,4.012,0,0,1,.461-.125c.1-.026.208-.046.31-.073a1.328,1.328,0,0,0,1-1.12c.013-.065.014-.133.028-.2a.659.659,0,0,0-.206-.652c-.143-.139-.271-.294-.42-.426a1.066,1.066,0,0,0-.8-.3c-.344.028-.69.056-1.03.117a2.667,2.667,0,0,1-1.415-.089c-.125-.045-.253-.082-.378-.128a2.211,2.211,0,0,0-1.636.007,5.423,5.423,0,0,1-1.595.338,2.311,2.311,0,0,0-1.823,1c-.106.153-.2.311-.306.467a.438.438,0,0,1-.363.211,6.651,6.651,0,0,1-1.4-.043,6.041,6.041,0,0,0-1.75-.01,5.132,5.132,0,0,0-1.381.376,3.08,3.08,0,0,0-1.105.771,1.833,1.833,0,0,0-.462,1.773c.093.349.228.45.594.459a1.864,1.864,0,0,0,.883-.219c.238-.118.47-.249.7-.381a2.777,2.777,0,0,1,.817-.31,4.131,4.131,0,0,1,1.146-.134c.2.015.4.046.593.077.249.039.5.085.747.126a.834.834,0,0,1,.609.408,4.274,4.274,0,0,0,1.242,1.225,1.126,1.126,0,0,0,.982.195c.141-.037.285-.068.429-.092a1.238,1.238,0,0,1,.821.062.526.526,0,0,0,.655-.111,1.307,1.307,0,0,0,.353-.478c.13-.32.246-.645.369-.968a3.336,3.336,0,0,1,.154-.366.181.181,0,0,1,.247-.053.456.456,0,0,1,.241.348,1.244,1.244,0,0,1-.1.854c-.072.127-.149.252-.232.372-.143.208-.293.412-.44.619a1.416,1.416,0,0,0-.263,1.057c.026.185.046.37.066.555a.524.524,0,0,1-.081.419l-.347.1c-.153.043-.309.078-.458.133a.366.366,0,0,0-.28.3c.068.135.208.162.32.227s.265.13.383.214a.443.443,0,0,1,.138.688,3.53,3.53,0,0,1-1.173,1.178c-.251.15-.5.305-.752.454a2.206,2.206,0,0,0-.8.76,1.684,1.684,0,0,1-.817.679,5.348,5.348,0,0,1-.679.23,2.484,2.484,0,0,0-1.2.678,2.1,2.1,0,0,1-.815.487.822.822,0,0,1-.234.039c-.332.024-.664.054-1,.065a1.169,1.169,0,0,0-.7.261c-.158.123-.317.243-.476.364a1.227,1.227,0,0,1-1.553.008,10.6,10.6,0,0,0-1.365-.9,1.672,1.672,0,0,1-.2-.133.721.721,0,0,1-.342-.75c.045-.275.052-.556.074-.835a2.1,2.1,0,0,0-.349-1.443,2.468,2.468,0,0,1-.335-1.013c-.034-.17-.054-.342-.093-.51a1.176,1.176,0,0,0-.11-.3.287.287,0,0,0-.3-.157,1.177,1.177,0,0,0-.27.066,1.753,1.753,0,0,1-1.1.045,1.482,1.482,0,0,0-1.227.177.638.638,0,0,0-.322.476c-.039.317-.094.631-.145.946a3.191,3.191,0,0,1-.071.352c-.08.287-.192.364-.494.339a1.839,1.839,0,0,1-.311-.065c-.167-.044-.333-.093-.5-.143a.793.793,0,0,0-.685.118,1.743,1.743,0,0,0-.637.649.637.637,0,0,1-.584.4,1.632,1.632,0,0,0-.8.333.685.685,0,0,0-.323.607c0,.239,0,.479,0,.719a.669.669,0,0,1-.269.594,1.1,1.1,0,0,0-.4,1.066,2.928,2.928,0,0,0,.112.586.574.574,0,0,1-.26.723,3.682,3.682,0,0,1-.48.285,1.445,1.445,0,0,0-.781.96,4.1,4.1,0,0,0-.138.7,7.22,7.22,0,0,0,.237,2.57,1.932,1.932,0,0,0,.11.3.507.507,0,0,0,.618.31c.078-.016.153-.048.231-.061a.463.463,0,0,1,.474.137.535.535,0,0,0,.087.082.591.591,0,0,0,.8-.015,2.351,2.351,0,0,0,.246-.261,4.208,4.208,0,0,0,.636-1.01.726.726,0,0,0-.126-.85,2.164,2.164,0,0,1-.182-.211,1.047,1.047,0,0,1-.081-1.1c.035-.075.091-.153.177-.128a.452.452,0,0,1,.174.145c.024.027.023.075.036.113a3.2,3.2,0,0,0,1.8,1.874c.292.127.6.216.9.325a4.288,4.288,0,0,1,.407.162,1.684,1.684,0,0,1,.885,1.031,4.136,4.136,0,0,0,.891,1.453,2.483,2.483,0,0,0,1.163.74,6.038,6.038,0,0,0,3.424.082c.307-.086.62-.154.933-.214a2.227,2.227,0,0,1,.476-.03.276.276,0,0,1,.288.273,1.344,1.344,0,0,1-.191.84c-.2.347-.374.7-.552,1.061a2.5,2.5,0,0,0-.122.337.348.348,0,0,1-.283.249c-.052.01-.1.036-.154.042a6.159,6.159,0,0,1-2.066-.065,3.756,3.756,0,0,1-.445-.174.974.974,0,0,0-.265-.076.346.346,0,0,0-.312.505,1.3,1.3,0,0,0,.318.349,4.867,4.867,0,0,0,2.99.951,5.19,5.19,0,0,0,2-.518.92.92,0,0,0,.51-.582.428.428,0,0,0-.1-.475.791.791,0,0,1-.247-.316.73.73,0,0,1,.574-.492,2.439,2.439,0,0,1,.433-.071.674.674,0,0,0,.481-.25c.478-.537.953-1.077,1.435-1.61a.564.564,0,0,0,.153-.435,2.271,2.271,0,0,0-.394-1.236,1.455,1.455,0,0,0-1.644-.6c-.252.083-.5.183-.742.29a2.657,2.657,0,0,1-.76.235.7.7,0,0,1-.31-.029.389.389,0,0,1-.167-.621c.058-.072.13-.133.2-.2a1.567,1.567,0,0,0,.41-.849.443.443,0,0,0-.171-.459c-.188-.148-.373-.3-.564-.445a.556.556,0,0,1-.218-.527.241.241,0,0,1,.175-.24,1.363,1.363,0,0,1,.311-.057,3.21,3.21,0,0,0,1.278-.277.685.685,0,0,1,.81.129,1.936,1.936,0,0,0,1.374.438.435.435,0,0,0,.326-.124c.117-.117.121-.252-.015-.334a1.338,1.338,0,0,0-.4-.178,3.111,3.111,0,0,1-1.152-.527,7.075,7.075,0,0,0-.739-.393c-.2-.106-.232-.171-.194-.383a.88.88,0,0,1,.417-.606.4.4,0,0,1,.568.088,1.9,1.9,0,0,1,.234.415c.162.384.261.48.792.349a4.508,4.508,0,0,0,.621-.267c.171-.071.344-.137.519-.2a1.03,1.03,0,0,1,.433-.019c.331.027.665.043,1,.037a2.309,2.309,0,0,0,.548-.1c.181-.049.224-.151.165-.332-.023-.073-.053-.145-.091-.246a1.76,1.76,0,0,1,.284-.058,1.723,1.723,0,0,0,.834-.243c.241-.141.49-.271.721-.427a.787.787,0,0,1,.754-.1c.275.1.56.167.841.248a.523.523,0,0,0,.545-.158.2.2,0,0,0,.019-.313c-.086-.1-.185-.192-.271-.293a.234.234,0,0,1,.008-.355,1.733,1.733,0,0,1,.308-.252,7.107,7.107,0,0,0,.943-.737c.139-.124.278-.249.428-.359a2.159,2.159,0,0,0,.795-1.073,1.746,1.746,0,0,1,.591-.835.624.624,0,0,1,.53-.108.338.338,0,0,1,.288.247,2.666,2.666,0,0,1,.049,1.225,1.76,1.76,0,0,1-.5.891c-.2.195-.4.388-.6.586a2.648,2.648,0,0,0-.693,1.151,2.862,2.862,0,0,1-.45.884,12.782,12.782,0,0,1-2.338,2.45c-.87.7-1.761,1.38-2.645,2.066-.136.106-.287.194-.429.292-.23.157-.465.308-.688.475a.673.673,0,0,1-.517.163c-.25-.036-.5-.062-.747-.12a1.4,1.4,0,0,0-.709.028c-.209.058-.26.136-.224.346a2.37,2.37,0,0,0,.248.755c.116.21.229.421.349.628a1.941,1.941,0,0,1,.278.743,2.5,2.5,0,0,1-.007.593.605.605,0,0,1-.443.516c-.138.047-.277.092-.415.141-.091.033-.171.082-.176.193a.287.287,0,0,0,.192.276,1.4,1.4,0,0,0,.232.059c.433.07.865.148,1.3.2a3.423,3.423,0,0,0,.6-.011.4.4,0,0,1,.35.151q.665.8,1.331,1.595a.36.36,0,0,1,.031.1.557.557,0,0,1-.3.029,2.591,2.591,0,0,0-1.171.2.451.451,0,0,1-.387,0c-.109-.048-.219-.1-.331-.139-.42-.162-.664-.024-.747.421a1.928,1.928,0,0,0-.022.2A6.947,6.947,0,0,0,43.2,38.39a2.251,2.251,0,0,0,.971,1.229,7.138,7.138,0,0,0,.812.427A43.547,43.547,0,0,0,49.2,41.625c.932.317,1.867.628,2.8.939a4.094,4.094,0,0,0,.931.209,1.727,1.727,0,0,1,1.25.626,1.579,1.579,0,0,0,.359.312.926.926,0,0,0,.8.121,2.814,2.814,0,0,0,.732-.31c.135-.085.268-.174.4-.257a1.2,1.2,0,0,1,.641-.193,2.912,2.912,0,0,0,2.482-1.433,2.337,2.337,0,0,0,.241-.5.72.72,0,0,0,.042-.312.439.439,0,0,0-.343-.437q-.369-.083-.741-.149c-.117-.021-.239-.015-.357-.034a.892.892,0,0,1-.552-.3,3.6,3.6,0,0,0-.9-.723,2.163,2.163,0,0,1-.382-.288.5.5,0,0,1,.1-.723.277.277,0,0,1,.188-.01.773.773,0,0,1,.385.272c.086.1.165.211.26.3a.893.893,0,0,0,.959.219,3.8,3.8,0,0,0,.547-.24c.284-.147.563-.3.84-.463a5.461,5.461,0,0,1,2.067-.694,2.792,2.792,0,0,0,1.061-.327,1.929,1.929,0,0,1,.214-.087.4.4,0,0,1,.059.1,1.063,1.063,0,0,1-.628,1.276c-.121.052-.253.08-.378.124-.276.1-.556.184-.826.3a.613.613,0,0,0-.365.75,1.353,1.353,0,0,0,.187.393.952.952,0,0,1-.024,1.154c-.059.089-.138.163-.2.252a1.737,1.737,0,0,0-.21.381.706.706,0,0,0,.118.714,5.521,5.521,0,0,1,.388.507,1.247,1.247,0,0,1,.193,1.064.576.576,0,0,1-.222.363.612.612,0,0,0-.306.487.885.885,0,0,0,.205.669c.095.11.213.2.317.3a.523.523,0,0,1,.09.129c.011.02,0,.051,0,.1a.641.641,0,0,1-.147,0,.721.721,0,0,1-.145-.066.868.868,0,0,0-.805.018c-.287.139-.579.268-.871.4a2.067,2.067,0,0,1-.3.1.636.636,0,0,1-.785-.37c-.05-.108-.075-.227-.12-.338a1.22,1.22,0,0,0-.877-.8,1.166,1.166,0,0,0-1.393.717,2.751,2.751,0,0,0-.148.66,5.17,5.17,0,0,0,.216,2.169,1.665,1.665,0,0,0,1.377,1.181,3.626,3.626,0,0,0,1.733-.142,5.868,5.868,0,0,0,.811-.332,2.463,2.463,0,0,0,1.382-1.755,1.776,1.776,0,0,1,.174-.524c.235,0,.311.148.347.323a1.664,1.664,0,0,1-.01.714c-.036.155-.081.309-.125.462a4.827,4.827,0,0,1-2.45,3.057c-.753.4-1.495.818-2.235,1.239a6.63,6.63,0,0,0-.693.469.985.985,0,0,0-.4.829c-.01.734.061,1.463.108,2.193a7.9,7.9,0,0,1-.483,3.013,5.094,5.094,0,0,1-.235.506.577.577,0,0,0-.085.456H11.433c0-.625.009-1.251.006-1.876a1.449,1.449,0,0,0-.069-.293H3.444c.043-.1.126-.107.2-.133l7.2-2.629c.137-.05.273-.105.411-.154a.241.241,0,0,0,.171-.243c.006-.239.008-.479.008-.718,0-.583.015-.51-.5-.7L3.694,51.021c-.07-.025-.156-.032-.192-.151h7.2c.133,0,.267,0,.4,0a2.157,2.157,0,0,0,.255-.046,9.809,9.809,0,0,0,.055-1.889,1.6,1.6,0,0,0-.061-.246c-.183-.008-.354-.023-.525-.022q-3.716,0-7.432.009c-.146,0-.293.011-.439.011-.985,0-1.97.047-2.954-.034V43.056c.065.082.131.164.195.247a3.232,3.232,0,0,0,.238.317,1.326,1.326,0,1,0-.134-1.7c-.1.138-.2.279-.3.418v-2.4c.171-.016.343-.045.514-.045q3.974,0,7.948,0c.785,0,1.571,0,2.356,0a1,1,0,0,0,.44-.046,1.262,1.262,0,0,0,.036-.434c0-1.051-.007-2.1,0-3.152a12.473,12.473,0,0,0-.167-2.1,4.3,4.3,0,0,0-.947-2.164,2.886,2.886,0,0,0-2.449-1.1,2.246,2.246,0,0,0-1.757.88,6.175,6.175,0,0,0-.4.643c-.053.089-.095.184-.141.276-.155-.04-.183-.171-.249-.262A2.325,2.325,0,0,0,4.18,31.6a2.582,2.582,0,0,0-2.889.5A3.284,3.284,0,0,0,.45,33.346,6.9,6.9,0,0,0,.132,34.5,4.151,4.151,0,0,1,0,34.908V26.2a.831.831,0,0,1,.534.12q4.278,1.719,8.554,3.441c.63.253,1.258.51,1.89.758.1.041.212.13.35.03a1.6,1.6,0,0,0,.03-.223c0-.559,0-1.118,0-1.677,0-.04,0-.08-.005-.12a.232.232,0,0,0-.152-.214c-.111-.045-.22-.094-.332-.138q-1-.4-2-.79c-.1-.038-.19-.086-.273-.125-.063-.371-.063-3.862,0-4.231.884-.385,1.817-.7,2.7-1.083a.593.593,0,0,0,.048-.143c0-.639.007-1.277,0-1.916,0-.056-.05-.112-.087-.19-.2.077-.39.144-.574.218Q5.647,21.946.614,23.974a1.6,1.6,0,0,1-.615.15V14.059a2.247,2.247,0,0,1,.123.375,7.794,7.794,0,0,0,.585,2.024,5.274,5.274,0,0,0,3.088,2.947,6.118,6.118,0,0,0,3.38.246,4.665,4.665,0,0,0,3.039-1.964A5.815,5.815,0,0,0,10.8,16.6a9.07,9.07,0,0,0,.612-3.633,14.16,14.16,0,0,0-.29-2.614c-.046-.233-.087-.282-.308-.285-.439-.006-.879,0-1.318,0a.721.721,0,0,0-.2.068,3.043,3.043,0,0,0,.045.406A11.4,11.4,0,0,1,9.623,12.4,6.291,6.291,0,0,1,9.33,14.96a3.175,3.175,0,0,1-2.359,2.17A4.839,4.839,0,0,1,4.6,17.11a3.37,3.37,0,0,1-2.165-1.641,4.451,4.451,0,0,1-.421-.988,5.922,5.922,0,0,1-.192-1.818,9.309,9.309,0,0,1,.251-2.015.672.672,0,0,0,.017-.416,6.377,6.377,0,0,0-1.708.029C.3,10.608.22,10.97.131,11.33c-.035.14-.087.275-.132.413V8.627c.532,0,1.065.007,1.6,0a1.063,1.063,0,0,0,.245-.067c0-.154.013-.3.014-.443,0-.825,0-1.65,0-2.475,0-.114-.033-.242.1-.359h8.681c.133,0,.267,0,.4-.006.185-.012.243-.062.245-.243.006-.506,0-1.011,0-1.517a.486.486,0,0,0-.008-.079.173.173,0,0,0-.157-.157,3.932,3.932,0,0,0-.4-.015H2.771c-.213,0-.426,0-.639,0a1.791,1.791,0,0,1-.281-.057c0-1.083-.009-2.146-.013-3.209ZM24.8,34.408c-.1,0-.236.011-.368.01-.36,0-.72-.007-1.079-.017a2.923,2.923,0,0,0-1.495.364c-.281.152-.568.293-.848.445a3.514,3.514,0,0,1-1.17.38c-.131.02-.266.024-.395.056a3.442,3.442,0,0,0-1.956,1.366,1.516,1.516,0,0,0-.24.5,5.76,5.76,0,0,1-.411,1.078,1.643,1.643,0,0,0-.141.494.278.278,0,0,0,.271.325c.194.018.287-.06.316-.269.007-.053,0-.107.01-.159a.392.392,0,0,1,.432-.377c.426-.006.853,0,1.279,0a2.8,2.8,0,0,0,.359-.013.27.27,0,0,0,.253-.263.494.494,0,0,0-.213-.554,7.5,7.5,0,0,1-.6-.462.226.226,0,0,1-.06-.288.433.433,0,0,1,.32-.273,3.148,3.148,0,0,1,.354-.057,1.942,1.942,0,0,1,1.609.647c.153.167.3.343.451.508a6.2,6.2,0,0,0,1.009.963,9.293,9.293,0,0,0,1.573.864,3.672,3.672,0,0,0,.449.165.612.612,0,0,0,.273.008.226.226,0,0,0,.187-.3.829.829,0,0,0-.15-.318,4.276,4.276,0,0,1-.765-1.479,2.6,2.6,0,0,1-.13-1.023,1.52,1.52,0,0,1,.527-1.082.972.972,0,0,1,1.069-.223,1.3,1.3,0,0,0,.931,0c.47-.144.948-.265,1.427-.378a2.077,2.077,0,0,1,.949.012,2.61,2.61,0,0,1,.9.421,3.438,3.438,0,0,0,1.052.559,2.993,2.993,0,0,0,2.536-.518.64.64,0,0,0,.24-.311.3.3,0,0,0-.145-.373.658.658,0,0,0-.192-.05c-.342-.048-.685-.1-1.028-.137A1.614,1.614,0,0,1,31.01,34,.812.812,0,0,0,30,33.67a2.169,2.169,0,0,1-1.025.055,5.085,5.085,0,0,0-1.512.007,5.7,5.7,0,0,1-.995.037.588.588,0,0,1-.495-.231,1.806,1.806,0,0,1,.2-.159A.3.3,0,0,0,26.317,33a1.341,1.341,0,0,0-.135-.33.512.512,0,0,0-.522-.223.386.386,0,0,0-.335.3c-.03.088-.058.177-.082.267-.086.321-.163.645-.256.964a.759.759,0,0,1-.186.426M9.088,42.224c.083.081.174.174.27.263.176.162.363.314.531.485a5.211,5.211,0,0,1,.355.429.669.669,0,0,1,.08.138.249.249,0,0,1-.231.388,1.542,1.542,0,0,1-.354-.05c-.283-.072-.567-.144-.846-.232q-2.32-.731-4.638-1.469a2.831,2.831,0,0,0-.345-.1,1.088,1.088,0,0,0-.243.013c.14,1.2.276,2.376.416,3.55a2.4,2.4,0,0,0,.074.3.394.394,0,0,0,.394,0,1.032,1.032,0,0,0,.1-.421,1.915,1.915,0,0,1,.079-.347.377.377,0,0,1,.461-.287,3.617,3.617,0,0,1,.581.138q1.927.586,3.853,1.181a2.861,2.861,0,0,0,1.022.146.842.842,0,0,0,.8-.558,2.387,2.387,0,0,0,.156-.7,2.585,2.585,0,0,0-.768-2.029c-.4-.407-.842-.775-1.269-1.155a.3.3,0,0,0-.285-.108.692.692,0,0,0-.194.415m13.945-14.5c-.015-.156-.032-.408-.067-.658a.361.361,0,0,0-.388-.324.448.448,0,0,0-.251.1,8.616,8.616,0,0,0-1.147,1.107,6.366,6.366,0,0,0-.446.66.666.666,0,0,0,.042.784c.069.1.145.191.21.291a.445.445,0,0,1,.027.49,1.265,1.265,0,0,1-.1.174.956.956,0,0,0-.13.943,4.566,4.566,0,0,0,1,1.794,2.5,2.5,0,0,0,.419.367,1.126,1.126,0,0,0,1.066.13c.5-.188.645-.32.422-.939a1.824,1.824,0,0,0-.388-.6q-.281-.311-.563-.621a1.693,1.693,0,0,1-.392-1.1.986.986,0,0,1,.07-.349.212.212,0,0,1,.289-.136c.124.047.243.108.363.165a.3.3,0,0,0,.367-.061.331.331,0,0,0,.117-.391,3.984,3.984,0,0,0-.23-.506,2.073,2.073,0,0,1-.3-1.313m10.34,20.095a2.922,2.922,0,0,0,.864-.166c.62-.2,1.225-.444,1.862-.591a.51.51,0,0,0,.4-.567.137.137,0,0,0-.157-.14,5.776,5.776,0,0,0-.622.137,1.279,1.279,0,0,1-.895-.068c-.135-.056-.265-.124-.4-.181a1.271,1.271,0,0,0-.9-.049,2.6,2.6,0,0,1-.826.115.882.882,0,0,0-.386.063,2.1,2.1,0,0,1-1.171.153c-.159-.017-.317-.04-.477-.044a.494.494,0,0,0-.267.049.867.867,0,0,1-.378.106c-.3.044-.606.085-.9.154a.427.427,0,0,0-.331.577,1,1,0,0,0,.732.723,3.191,3.191,0,0,0,.671.086A2.156,2.156,0,0,0,31.68,47.7a.434.434,0,0,1,.44-.1,5.488,5.488,0,0,0,.586.115c.222.039.445.072.667.107m-2.416-33c-.113.03-.252.064-.39.1a4.114,4.114,0,0,0-.606.19.485.485,0,0,0-.249.639.277.277,0,0,0,.366.216,1.887,1.887,0,0,0,1.319-.947,1.837,1.837,0,0,0,.167-.4.354.354,0,0,1,.381-.284c.292,0,.585.011.876.036a1.678,1.678,0,0,0,.789-.032.443.443,0,0,1,.117-.023.259.259,0,0,1,.311.187,2.233,2.233,0,0,1,.077.39.891.891,0,0,0,.993.863.374.374,0,0,0,.408-.393.837.837,0,0,0-.263-.645c-.119-.125-.237-.251-.344-.386a.465.465,0,0,1-.037-.56,2.574,2.574,0,0,1,.256-.352,1.394,1.394,0,0,1,.211-.183.386.386,0,0,0,.118-.5.236.236,0,0,0-.308-.173,4.456,4.456,0,0,1-.5.112,5.692,5.692,0,0,1-1.114.042,1.152,1.152,0,0,0-.9.256,2.082,2.082,0,0,1-.8.341,3.037,3.037,0,0,0-.491.16,1.4,1.4,0,0,0-.39.269c-.287.289-.287.417-.043.748a.268.268,0,0,1,.049.326m10.978.72a1.71,1.71,0,0,0-.364.128,6.042,6.042,0,0,1-2.161.782A6.322,6.322,0,0,0,37.668,17a2.41,2.41,0,0,1-.837.245.964.964,0,0,0-.474.2.45.45,0,0,0-.186.3c-.036.238.035.521.41.466.026,0,.052-.01.079-.013a2.812,2.812,0,0,0,1.376-.484.484.484,0,0,1,.487-.06c.223.085.456.145.683.219a.877.877,0,0,0,.859-.176c.094-.074.175-.164.266-.241a.973.973,0,0,1,.612-.254,3.679,3.679,0,0,0,1.04-.26.17.17,0,0,0,.07-.036.892.892,0,0,1,.548-.28.35.35,0,0,0,.247-.47.7.7,0,0,0-.433-.489,4.191,4.191,0,0,0-.48-.116M15.169,46.732c0,.186-.012.373,0,.558a3.288,3.288,0,0,0,.343,1.262,2.258,2.258,0,0,0,.929.963.8.8,0,0,0,.729.059.293.293,0,0,0,.185-.445,2.785,2.785,0,0,0-.272-.439,1.029,1.029,0,0,1-.217-.546,2.044,2.044,0,0,0-.325-.974A1.059,1.059,0,0,1,16.4,46.4c.017-.1.046-.208.061-.313a1.92,1.92,0,0,0,.036-.4.886.886,0,0,0-.1-.34.614.614,0,0,0-.64-.313.51.51,0,0,0-.475.462,4.372,4.372,0,0,0-.112,1.228M35.538,41.39a.942.942,0,0,0-.145.01,3.026,3.026,0,0,0-1.493.707,1.368,1.368,0,0,0-.27.34.364.364,0,0,0,.351.543.722.722,0,0,0,.3-.094,6.763,6.763,0,0,0,.782-.476,1.921,1.921,0,0,1,1.268-.383.828.828,0,0,1,.611.231,1.529,1.529,0,0,0,.3.2.492.492,0,0,0,.386.04.942.942,0,0,0,.679-.8.694.694,0,0,0-.393-.679.852.852,0,0,0-.838.019,2.19,2.19,0,0,1-1.534.346M17.554,41.7a1.624,1.624,0,0,0-1.026.233.3.3,0,0,0-.154.433.374.374,0,0,0,.5.264c.4-.074.808-.148,1.212-.227a1.51,1.51,0,0,1,1.043.135.989.989,0,0,0,.106.056.372.372,0,0,0,.519-.427,1.417,1.417,0,0,0-.9-1.081.3.3,0,0,0-.334.049c-.1.087-.2.174-.292.271a.738.738,0,0,1-.667.293m8.3-3.013c-.012,0-.065,0-.118.007a.6.6,0,0,0-.078.016.205.205,0,0,0-.178.227.422.422,0,0,0,.267.408.715.715,0,0,0,.23.058,1.64,1.64,0,0,1,.905.38,7.116,7.116,0,0,0,.619.437,1.929,1.929,0,0,0,.438.187.518.518,0,0,0,.536-.187.427.427,0,0,0,.065-.485,1.046,1.046,0,0,0-.418-.52,2.733,2.733,0,0,0-.726-.324,6.555,6.555,0,0,0-1.54-.2m11.8-24.118a.8.8,0,0,0,.58-.221,1.8,1.8,0,0,1,1.05-.431c.3-.034.6-.1.9-.158a.25.25,0,0,0,.222-.285.8.8,0,0,0-.027-.236.415.415,0,0,0-.6-.265.706.706,0,0,0-.1.059,2.033,2.033,0,0,1-1.249.33,2.329,2.329,0,0,0-.514.048,1.029,1.029,0,0,0-.656.482.453.453,0,0,0,.4.676M58.389,45.007a1.751,1.751,0,0,0,1.45-.8.265.265,0,0,0,.046-.149.519.519,0,0,0-.68-.509,2.57,2.57,0,0,0-1.082.85.4.4,0,0,0-.013.451.281.281,0,0,0,.279.157M27.723,30.144a1.36,1.36,0,0,0,.2-.016.974.974,0,0,0,.584-.314.38.38,0,0,0-.1-.611,1.1,1.1,0,0,0-1.033-.052.512.512,0,0,0-.291.594c.032.219.175.345.442.386.065.01.132.009.2.013M20.985,42.482c0-.018,0-.058-.007-.1a.185.185,0,0,0-.287-.158.97.97,0,0,0-.253.185,2.4,2.4,0,0,0-.425.714.189.189,0,0,0,.16.261.6.6,0,0,0,.233-.026.852.852,0,0,0,.58-.878M17.56,40.966c0,.321.183.451.486.349l.038-.012a.4.4,0,0,0,.254-.621.336.336,0,0,0-.514-.172.512.512,0,0,0-.264.456M28.2,30.8a1.473,1.473,0,0,0-.275.1.232.232,0,0,0-.095.161.5.5,0,0,0,.469.494,1.247,1.247,0,0,0,.379-.1.28.28,0,0,0,.142-.3.239.239,0,0,0-.172-.24c-.139-.042-.281-.069-.448-.11m1.7,2.166a1.359,1.359,0,0,0-.036-.132.481.481,0,0,0-.463-.309c-.361-.026-.45.163-.334.424a1.028,1.028,0,0,0,.158.268.361.361,0,0,0,.437.059.367.367,0,0,0,.239-.311M55.178,18.042c-.084,0-.1,0-.111,0a.3.3,0,0,0-.278.244.225.225,0,0,0,.125.266,1.177,1.177,0,0,0,.284.139.4.4,0,0,0,.4-.108.277.277,0,0,0-.1-.475c-.13-.023-.259-.053-.32-.066M30.275,30a.345.345,0,0,0-.339.153.278.278,0,0,0,.037.329.6.6,0,0,0,.163.167.342.342,0,0,0,.51-.179.422.422,0,0,0-.371-.47" transform="translate(0.001)" fill="#0d3080"/>
    <path id="Tracciato_383" data-name="Tracciato 383" d="M0,234.616c.984.082,1.969.036,2.954.034.146,0,.293-.011.439-.011q3.716-.005,7.432-.008c.171,0,.342.014.525.023a1.565,1.565,0,0,1,.061.246,9.814,9.814,0,0,1-.055,1.889,2.156,2.156,0,0,1-.256.046c-.132.009-.266,0-.4,0H3.5c.035.119.121.125.191.151l7.236,2.626c.514.187.5.113.5.7q0,.359-.008.718a.241.241,0,0,1-.171.243c-.138.049-.274.1-.411.154l-7.2,2.628c-.072.026-.155.031-.2.134,2.642,0,5.275,0,7.926,0a1.458,1.458,0,0,1,.069.292c0,.625,0,1.251-.006,1.876H0v-3.035a2.013,2.013,0,0,0,.618-.139c.672-.25,1.347-.492,2.02-.738,1.733-.632,3.455-1.295,5.225-1.821.071-.021.14-.052.272-.1-.139-.061-.216-.1-.3-.13-.315-.1-.635-.2-.948-.305q-3.119-1.1-6.234-2.208a2.182,2.182,0,0,0-.657-.15Z" transform="translate(0.001 -185.968)" fill="#fff"/>
    <path id="Tracciato_384" data-name="Tracciato 384" d="M0,152.971a4.165,4.165,0,0,0,.133-.411,6.9,6.9,0,0,1,.317-1.151,3.284,3.284,0,0,1,.841-1.246,2.583,2.583,0,0,1,2.889-.5,2.324,2.324,0,0,1,1.007.822c.066.091.094.222.249.262.047-.092.089-.187.141-.276a6.209,6.209,0,0,1,.4-.643,2.246,2.246,0,0,1,1.758-.88,2.886,2.886,0,0,1,2.449,1.1,4.3,4.3,0,0,1,.947,2.164,12.451,12.451,0,0,1,.167,2.1c-.008,1.051,0,2.1,0,3.152a1.256,1.256,0,0,1-.036.434,1,1,0,0,1-.44.046c-.785,0-1.571,0-2.356,0q-3.974,0-7.948,0c-.171,0-.343.029-.514.045Zm9.474,2.73a1.65,1.65,0,0,0,.021-.178c0-.6,0-1.195-.006-1.792a4.318,4.318,0,0,0-.185-1.176,3.44,3.44,0,0,0-.307-.73,1.187,1.187,0,0,0-1.221-.581,1.16,1.16,0,0,0-1.044.742,2.657,2.657,0,0,0-.233.962c-.018.836-.022,1.672-.027,2.509a1.221,1.221,0,0,0,.051.253,26.813,26.813,0,0,0,2.952-.008m-7.577.043h.9c.306,0,.611,0,.917,0a7.3,7.3,0,0,0,.872-.019.822.822,0,0,0,.044-.174c0-.81,0-1.619-.018-2.429a1.63,1.63,0,0,0-.194-.685,1.2,1.2,0,0,0-.915-.695,1.211,1.211,0,0,0-1.433.788,2.3,2.3,0,0,0-.141.617c-.035.8-.047,1.592-.066,2.388a1.554,1.554,0,0,0,.03.209" transform="translate(0 -118.063)" fill="#fff"/>
    <path id="Tracciato_385" data-name="Tracciato 385" d="M0,99.446a1.6,1.6,0,0,0,.615-.15q5.032-2.029,10.067-4.053c.184-.074.371-.141.574-.218.037.078.087.134.087.19,0,.638,0,1.277,0,1.916a.591.591,0,0,1-.048.143c-.881.385-1.814.7-2.7,1.083-.065.369-.065,3.86,0,4.231.083.038.176.086.273.125q1,.4,2,.79c.111.044.221.092.332.138a.232.232,0,0,1,.152.214c0,.04.005.08.005.12,0,.559,0,1.118,0,1.677a1.6,1.6,0,0,1-.03.223c-.137.1-.246.01-.35-.03-.632-.248-1.26-.5-1.889-.758Q4.81,103.363.533,101.643a.83.83,0,0,0-.534-.12Zm6.662-.272a29.555,29.555,0,0,0-3.4,1.2,1.943,1.943,0,0,0-.2.117c.433.2.838.323,1.232.471s.771.293,1.16.43.781.317,1.194.418A17.838,17.838,0,0,0,6.7,99.356a1.29,1.29,0,0,0-.034-.182" transform="translate(0.001 -75.322)" fill="#fff"/>
    <path id="Tracciato_386" data-name="Tracciato 386" d="M0,50.228c.045-.137.1-.273.132-.413.089-.36.17-.722.251-1.069a6.386,6.386,0,0,1,1.708-.029.671.671,0,0,1-.017.416,9.3,9.3,0,0,0-.251,2.015,5.917,5.917,0,0,0,.192,1.818,4.449,4.449,0,0,0,.421.988A3.371,3.371,0,0,0,4.6,55.6a4.839,4.839,0,0,0,2.372.02,3.175,3.175,0,0,0,2.359-2.17,6.292,6.292,0,0,0,.293-2.559,11.418,11.418,0,0,0-.274-1.852,3.013,3.013,0,0,1-.045-.406.717.717,0,0,1,.2-.068c.439-.006.879-.011,1.319,0,.221,0,.262.052.308.285a14.162,14.162,0,0,1,.29,2.614,9.067,9.067,0,0,1-.612,3.633,5.807,5.807,0,0,1-.591,1.084,4.666,4.666,0,0,1-3.039,1.964,6.117,6.117,0,0,1-3.38-.246A5.274,5.274,0,0,1,.707,54.944a7.794,7.794,0,0,1-.585-2.024A2.247,2.247,0,0,0,0,52.545Z" transform="translate(0.001 -38.486)" fill="#fff"/>
    <path id="Tracciato_387" data-name="Tracciato 387" d="M1.839,0c0,1.063.009,2.126.013,3.209a1.812,1.812,0,0,0,.282.057c.213.008.426,0,.639,0h7.949a3.934,3.934,0,0,1,.4.016.173.173,0,0,1,.157.157.51.51,0,0,1,.008.079c0,.506,0,1.011,0,1.516,0,.181-.06.232-.245.244-.132.009-.266.006-.4.006H1.957c-.133.117-.1.245-.1.359,0,.825,0,1.649,0,2.474,0,.144-.009.289-.013.443a1.073,1.073,0,0,1-.246.066c-.532,0-1.064,0-1.6,0V0Z" fill="#fff"/>
    <path id="Tracciato_388" data-name="Tracciato 388" d="M0,249.64a2.17,2.17,0,0,1,.657.15Q3.772,250.9,6.89,252c.313.11.632.2.948.305.081.027.158.068.3.13-.132.05-.2.08-.272.1-1.77.526-3.493,1.188-5.225,1.821-.673.246-1.348.488-2.02.738a2.018,2.018,0,0,1-.618.139Z" transform="translate(0.001 -197.877)" fill="#0d3080"/>
    <path id="Tracciato_389" data-name="Tracciato 389" d="M0,200.451c.1-.139.2-.28.3-.418a1.328,1.328,0,1,1,.135,1.7,3.166,3.166,0,0,1-.238-.317c-.063-.083-.13-.165-.195-.247Z" transform="translate(0.001 -158.114)" fill="#fff"/>
    <path id="Tracciato_390" data-name="Tracciato 390" d="M210.052,137.267c0,.2-.015.4,0,.6a1.353,1.353,0,0,0,.117.416.479.479,0,0,0,.335.259,1.953,1.953,0,0,0,1.5-.228,3.591,3.591,0,0,0,.518-.371c.876-.716,1.745-1.44,2.624-2.153a6.226,6.226,0,0,1,1.97-1.114,4.785,4.785,0,0,1,2.048-.21,2.833,2.833,0,0,1,.541.127,1.071,1.071,0,0,1,.59.454,2.486,2.486,0,0,1,.414,1.232,1.579,1.579,0,0,1-.439,1.2,5.552,5.552,0,0,1-1.645,1.246,5.085,5.085,0,0,1-.475.207.361.361,0,0,0-.258.4c.01.213,0,.426,0,.638a.654.654,0,0,1-.21.5,3.541,3.541,0,0,1-1.928.973.941.941,0,0,1-.584-.083c-.119-.058-.24-.115-.364-.164a1.429,1.429,0,0,0-.78-.1c-.419.072-.841.134-1.264.174a2.547,2.547,0,0,1-1.107-.063,4.555,4.555,0,0,1-.44-.185.376.376,0,0,1-.228-.349,4.4,4.4,0,0,1,.039-.593c.018-.13.076-.255.1-.384.041-.188-.006-.32-.135-.382a.354.354,0,0,0-.409.053c-.061.051-.117.109-.175.164a.592.592,0,0,1-.148.131.6.6,0,0,1-.263.053.57.57,0,0,1-.4-.237c-.544-.689-1.1-1.371-1.614-2.081a4.656,4.656,0,0,1-.427-.9.533.533,0,0,1-.021-.235.189.189,0,0,1,.167-.2,1.056,1.056,0,0,1,.875.152.519.519,0,0,0,.628.064,2.037,2.037,0,0,1,.221-.093.444.444,0,0,1,.654.4c.021.224,0,.451,0,.677Zm5.321-.4a.806.806,0,0,0-.045-.154.386.386,0,0,0-.535-.2,2.526,2.526,0,0,0-.773.48q-.6.581-1.192,1.17a.682.682,0,0,0-.122.155.237.237,0,0,0,.113.334.544.544,0,0,0,.6-.022c.064-.047.131-.09.194-.139q.713-.541,1.425-1.083a1.852,1.852,0,0,0,.183-.153.515.515,0,0,0,.152-.392m.763.506a.385.385,0,0,0-.353.147c-.273.27-.536.549-.8.825a.513.513,0,0,0-.071.1.28.28,0,0,0,.171.411.334.334,0,0,0,.33-.085c.222-.189.445-.376.665-.567a1.422,1.422,0,0,0,.193-.2.466.466,0,0,0,.079-.484.206.206,0,0,0-.211-.144" transform="translate(-164.505 -106.558)" fill="#0d3080"/>
    <path id="Tracciato_391" data-name="Tracciato 391" d="M127.219,97.694a3.416,3.416,0,0,1,.265-.472,3.883,3.883,0,0,0,.613-1.158c.044-.125.088-.251.14-.373a.582.582,0,0,1,.094-.119c.118.073.08.175.077.259a4.042,4.042,0,0,0,.1,1.03,2.774,2.774,0,0,0,1.322,1.821,4.271,4.271,0,0,0,.947.418c.127.04.255.075.381.119.274.1.336.192.316.474a.5.5,0,0,1-.386.494,1.291,1.291,0,0,1-.632-.038,2.962,2.962,0,0,1-.769-.328,7.1,7.1,0,0,1-1.136-.811c-.386-.347-.758-.709-1.133-1.068a2.761,2.761,0,0,1-.2-.249" transform="translate(-100.84 -75.754)" fill="#0d3080"/>
    <path id="Tracciato_392" data-name="Tracciato 392" d="M142.089,98.938a.188.188,0,0,1,.205-.2.611.611,0,0,1,.233.038,1.836,1.836,0,0,1,.422.219,2.9,2.9,0,0,1,1.039,1.523.549.549,0,0,1-.009.414.8.8,0,0,1-.16-.129,3.289,3.289,0,0,1-.228-.373,3.136,3.136,0,0,0-1.19-1.26c-.11-.068-.245-.107-.312-.234" transform="translate(-112.627 -78.268)" fill="#0d3080"/>
    <path id="Tracciato_393" data-name="Tracciato 393" d="M234.791,62.025c.042-.171.064-.3.106-.422a5.922,5.922,0,0,1,.682-1.25.27.27,0,0,1,.027-.029.116.116,0,0,1,.211.045,1.392,1.392,0,0,1-.145,1.182,2.836,2.836,0,0,1-.372.46.327.327,0,0,1-.2.107,1.139,1.139,0,0,1-.307-.093" transform="translate(-186.107 -47.775)" fill="#0d3080"/>
    <path id="Tracciato_394" data-name="Tracciato 394" d="M187.233,105.733a.925.925,0,0,1-.364.524c-.355.255-.721.5-1.082.744a.365.365,0,0,1-.071.035.148.148,0,0,1-.2-.123.922.922,0,0,1,.063-.3.74.74,0,0,1,.325-.34c.32-.188.644-.37.967-.553a.3.3,0,0,1,.367.02" transform="translate(-147.045 -83.751)" fill="#0d3080"/>
    <path id="Tracciato_395" data-name="Tracciato 395" d="M128.6,117.037a.39.39,0,0,1-.41-.426.447.447,0,0,1,.414-.485.4.4,0,0,1,.447.435.42.42,0,0,1-.451.477" transform="translate(-101.606 -92.047)" fill="#0d3080"/>
    <path id="Tracciato_396" data-name="Tracciato 396" d="M213.288,51.452a2.188,2.188,0,0,1,.049-.423c.092-.278.306-.323.514-.124a.35.35,0,0,1,.086.432.362.362,0,0,1-.39.209,1.571,1.571,0,0,1-.259-.095" transform="translate(-169.063 -40.253)" fill="#0d3080"/>
    <path id="Tracciato_397" data-name="Tracciato 397" d="M219.172,98.806c-.018-.086-.044-.138-.034-.181a.832.832,0,0,1,.687-.574c.029,0,.076.061.089.1a.128.128,0,0,1-.037.108q-.207.184-.425.355c-.079.063-.168.114-.281.189" transform="translate(-173.698 -77.721)" fill="#0d3080"/>
    <path id="Tracciato_398" data-name="Tracciato 398" d="M88.632,158.448a.759.759,0,0,0,.186-.426c.093-.319.171-.642.256-.964.024-.09.052-.179.082-.267a.386.386,0,0,1,.335-.3.511.511,0,0,1,.522.223,1.351,1.351,0,0,1,.135.33.3.3,0,0,1-.147.375,1.788,1.788,0,0,0-.2.159.588.588,0,0,0,.494.231,5.7,5.7,0,0,0,.995-.037,5.092,5.092,0,0,1,1.512-.007,2.17,2.17,0,0,0,1.025-.055.812.812,0,0,1,1.014.326,1.615,1.615,0,0,0,1.181.663c.343.041.686.089,1.028.137a.666.666,0,0,1,.192.05.3.3,0,0,1,.146.373.64.64,0,0,1-.24.311,2.993,2.993,0,0,1-2.536.518,3.437,3.437,0,0,1-1.052-.559,2.612,2.612,0,0,0-.9-.421,2.081,2.081,0,0,0-.949-.012c-.479.113-.956.234-1.427.378a1.3,1.3,0,0,1-.931,0,.972.972,0,0,0-1.069.223,1.521,1.521,0,0,0-.528,1.082,2.6,2.6,0,0,0,.13,1.022,4.278,4.278,0,0,0,.765,1.479.828.828,0,0,1,.15.318.226.226,0,0,1-.187.3.614.614,0,0,1-.273-.008,3.658,3.658,0,0,1-.449-.165,9.314,9.314,0,0,1-1.573-.864,6.207,6.207,0,0,1-1.009-.964c-.155-.165-.3-.341-.451-.508a1.943,1.943,0,0,0-1.609-.647,3.2,3.2,0,0,0-.354.057.433.433,0,0,0-.32.273.226.226,0,0,0,.059.288,7.542,7.542,0,0,0,.6.462.494.494,0,0,1,.213.554.27.27,0,0,1-.253.262,2.76,2.76,0,0,1-.359.013c-.426,0-.853-.011-1.279-.005a.392.392,0,0,0-.432.377c-.009.052,0,.106-.01.159-.029.208-.122.287-.316.268a.278.278,0,0,1-.271-.325,1.644,1.644,0,0,1,.14-.494,5.741,5.741,0,0,0,.411-1.078,1.519,1.519,0,0,1,.24-.5,3.441,3.441,0,0,1,1.956-1.366c.128-.032.263-.036.395-.056a3.515,3.515,0,0,0,1.171-.38c.28-.152.567-.293.848-.445a2.923,2.923,0,0,1,1.495-.364c.36.01.719.014,1.079.017.131,0,.263-.007.368-.01" transform="translate(-63.829 -124.04)" fill="#fff"/>
    <path id="Tracciato_399" data-name="Tracciato 399" d="M23.108,202.02a.691.691,0,0,1,.194-.415.3.3,0,0,1,.285.108c.427.381.868.748,1.269,1.155a2.585,2.585,0,0,1,.768,2.029,2.4,2.4,0,0,1-.156.7.843.843,0,0,1-.8.558A2.86,2.86,0,0,1,23.646,206q-1.925-.6-3.853-1.181a3.622,3.622,0,0,0-.581-.138.377.377,0,0,0-.461.287,1.9,1.9,0,0,0-.079.347,1.039,1.039,0,0,1-.1.421.394.394,0,0,1-.394,0,2.432,2.432,0,0,1-.074-.3c-.14-1.173-.276-2.347-.416-3.55a1.086,1.086,0,0,1,.243-.013,2.806,2.806,0,0,1,.345.1q2.319.735,4.638,1.469c.279.088.562.16.846.232a1.549,1.549,0,0,0,.354.05.249.249,0,0,0,.231-.388.674.674,0,0,0-.08-.138,5.209,5.209,0,0,0-.355-.429c-.168-.17-.354-.322-.53-.485-.1-.089-.188-.182-.27-.263" transform="translate(-14.02 -159.796)" fill="#fff"/>
    <path id="Tracciato_400" data-name="Tracciato 400" d="M101.883,129.968a2.073,2.073,0,0,0,.3,1.313,3.959,3.959,0,0,1,.23.506.331.331,0,0,1-.117.391.3.3,0,0,1-.367.061c-.12-.057-.239-.118-.363-.165a.212.212,0,0,0-.289.136.977.977,0,0,0-.07.349,1.692,1.692,0,0,0,.392,1.1q.283.309.563.621a1.827,1.827,0,0,1,.388.6c.222.619.082.751-.422.939a1.126,1.126,0,0,1-1.066-.13,2.5,2.5,0,0,1-.418-.367,4.569,4.569,0,0,1-1-1.794.956.956,0,0,1,.13-.943,1.267,1.267,0,0,0,.1-.174.445.445,0,0,0-.027-.49c-.065-.1-.141-.193-.21-.291a.667.667,0,0,1-.042-.784,6.4,6.4,0,0,1,.446-.66,8.629,8.629,0,0,1,1.147-1.107.449.449,0,0,1,.252-.1.361.361,0,0,1,.388.324c.035.249.051.5.067.658" transform="translate(-78.85 -102.241)" fill="#fff"/>
    <path id="Tracciato_401" data-name="Tracciato 401" d="M143.327,224.193c-.222-.035-.445-.068-.667-.107a5.5,5.5,0,0,1-.586-.115.434.434,0,0,0-.439.1,2.157,2.157,0,0,1-1.487.473,3.19,3.19,0,0,1-.671-.086,1,1,0,0,1-.732-.723.427.427,0,0,1,.331-.577c.3-.068.6-.11.9-.154a.868.868,0,0,0,.378-.106.494.494,0,0,1,.267-.049c.159,0,.318.027.477.044a2.1,2.1,0,0,0,1.171-.153.882.882,0,0,1,.386-.063,2.6,2.6,0,0,0,.826-.115,1.27,1.27,0,0,1,.9.049c.135.057.265.125.4.181a1.279,1.279,0,0,0,.895.068,5.8,5.8,0,0,1,.622-.137.136.136,0,0,1,.157.14.51.51,0,0,1-.4.567c-.637.147-1.242.394-1.862.591a2.921,2.921,0,0,1-.864.166" transform="translate(-109.954 -176.371)" fill="#fff"/>
    <path id="Tracciato_402" data-name="Tracciato 402" d="M144.395,62.834a.268.268,0,0,0-.049-.326c-.245-.331-.244-.458.043-.747a1.4,1.4,0,0,1,.39-.269,3.037,3.037,0,0,1,.491-.16,2.079,2.079,0,0,0,.8-.341,1.152,1.152,0,0,1,.9-.256,5.676,5.676,0,0,0,1.114-.042,4.373,4.373,0,0,0,.5-.112.236.236,0,0,1,.308.173.387.387,0,0,1-.118.5,1.372,1.372,0,0,0-.211.183,2.555,2.555,0,0,0-.256.352.465.465,0,0,0,.037.56c.107.135.225.261.344.386a.836.836,0,0,1,.262.645.374.374,0,0,1-.408.393.89.89,0,0,1-.993-.863,2.249,2.249,0,0,0-.077-.39.259.259,0,0,0-.311-.187.435.435,0,0,0-.117.023,1.678,1.678,0,0,1-.789.031c-.291-.025-.583-.032-.875-.036a.354.354,0,0,0-.381.284,1.847,1.847,0,0,1-.167.4,1.886,1.886,0,0,1-1.319.947.277.277,0,0,1-.366-.216.485.485,0,0,1,.249-.639,4.14,4.14,0,0,1,.607-.19c.138-.04.277-.074.39-.1" transform="translate(-113.438 -48.012)" fill="#fff"/>
    <path id="Tracciato_403" data-name="Tracciato 403" d="M180.177,74.954a4.157,4.157,0,0,1,.48.116.7.7,0,0,1,.433.489.35.35,0,0,1-.246.47.891.891,0,0,0-.548.28.169.169,0,0,1-.07.036,3.675,3.675,0,0,1-1.04.26.973.973,0,0,0-.612.254c-.091.078-.172.167-.266.241a.876.876,0,0,1-.859.176c-.227-.075-.46-.134-.683-.219a.484.484,0,0,0-.487.061,2.811,2.811,0,0,1-1.376.484c-.026,0-.052.009-.079.013-.375.056-.447-.227-.41-.466a.45.45,0,0,1,.187-.3.964.964,0,0,1,.474-.2,2.41,2.41,0,0,0,.837-.245,6.322,6.322,0,0,1,1.742-.547,6.041,6.041,0,0,0,2.161-.782,1.714,1.714,0,0,1,.364-.128" transform="translate(-138.242 -59.412)" fill="#fff"/>
    <path id="Tracciato_404" data-name="Tracciato 404" d="M73.131,218.895a4.372,4.372,0,0,1,.112-1.228.51.51,0,0,1,.475-.462.614.614,0,0,1,.64.312.886.886,0,0,1,.1.34,1.9,1.9,0,0,1-.036.395c-.015.105-.044.208-.061.313a1.058,1.058,0,0,0,.146.765,2.045,2.045,0,0,1,.325.974,1.03,1.03,0,0,0,.217.546,2.788,2.788,0,0,1,.272.44.293.293,0,0,1-.185.445.8.8,0,0,1-.729-.059,2.259,2.259,0,0,1-.929-.963,3.29,3.29,0,0,1-.343-1.262c-.015-.185,0-.372,0-.558" transform="translate(-57.962 -172.163)" fill="#fff"/>
    <path id="Tracciato_405" data-name="Tracciato 405" d="M163.917,197.833a2.19,2.19,0,0,0,1.534-.346.852.852,0,0,1,.838-.019.693.693,0,0,1,.393.68.942.942,0,0,1-.679.8.492.492,0,0,1-.387-.04,1.514,1.514,0,0,1-.3-.2.828.828,0,0,0-.611-.231,1.921,1.921,0,0,0-1.268.383,6.838,6.838,0,0,1-.782.477.726.726,0,0,1-.3.094.364.364,0,0,1-.351-.543,1.365,1.365,0,0,1,.27-.341,3.022,3.022,0,0,1,1.493-.706.947.947,0,0,1,.145-.01" transform="translate(-128.379 -156.443)" fill="#fff"/>
    <path id="Tracciato_406" data-name="Tracciato 406" d="M80.018,198.634a.738.738,0,0,0,.667-.293c.091-.1.192-.184.292-.271a.3.3,0,0,1,.334-.049,1.417,1.417,0,0,1,.9,1.081.372.372,0,0,1-.519.427.933.933,0,0,1-.106-.056,1.51,1.51,0,0,0-1.043-.135c-.4.078-.808.153-1.212.226a.373.373,0,0,1-.5-.264.3.3,0,0,1,.154-.433,1.624,1.624,0,0,1,1.026-.233" transform="translate(-62.463 -156.938)" fill="#fff"/>
    <path id="Tracciato_407" data-name="Tracciato 407" d="M123.259,186.557a6.559,6.559,0,0,1,1.54.2,2.736,2.736,0,0,1,.726.324,1.047,1.047,0,0,1,.418.52.427.427,0,0,1-.064.485.519.519,0,0,1-.536.187,1.928,1.928,0,0,1-.438-.187,7.123,7.123,0,0,1-.619-.437,1.64,1.64,0,0,0-.905-.38.715.715,0,0,1-.23-.058.422.422,0,0,1-.267-.408.205.205,0,0,1,.178-.227.6.6,0,0,1,.078-.016c.053,0,.106-.006.118-.007" transform="translate(-97.404 -147.874)" fill="#fff"/>
    <path id="Tracciato_408" data-name="Tracciato 408" d="M179.841,63.957a.453.453,0,0,1-.4-.676,1.03,1.03,0,0,1,.656-.482,2.34,2.34,0,0,1,.514-.048,2.032,2.032,0,0,0,1.249-.33.7.7,0,0,1,.1-.059.415.415,0,0,1,.6.265.787.787,0,0,1,.027.236.251.251,0,0,1-.222.285c-.3.062-.6.124-.9.158a1.794,1.794,0,0,0-1.049.431.8.8,0,0,1-.58.221" transform="translate(-142.189 -49.393)" fill="#fff"/>
    <path id="Tracciato_409" data-name="Tracciato 409" d="M280.292,211.363a.281.281,0,0,1-.279-.157.4.4,0,0,1,.013-.451,2.569,2.569,0,0,1,1.082-.85.519.519,0,0,1,.68.509.265.265,0,0,1-.046.149,1.751,1.751,0,0,1-1.45.8" transform="translate(-221.901 -166.356)" fill="#fff"/>
    <path id="Tracciato_410" data-name="Tracciato 410" d="M131.214,141.182c-.068,0-.135,0-.2-.013-.267-.041-.41-.168-.442-.386a.512.512,0,0,1,.291-.594,1.1,1.1,0,0,1,1.033.052.38.38,0,0,1,.1.611.974.974,0,0,1-.585.314,1.355,1.355,0,0,1-.2.016" transform="translate(-103.49 -111.037)" fill="#fff"/>
    <path id="Tracciato_411" data-name="Tracciato 411" d="M97.434,203.794a.852.852,0,0,1-.58.878.6.6,0,0,1-.233.026.189.189,0,0,1-.16-.261,2.4,2.4,0,0,1,.424-.714.974.974,0,0,1,.254-.185.185.185,0,0,1,.287.158c.005.039.006.079.007.1" transform="translate(-76.448 -161.312)" fill="#fff"/>
    <path id="Tracciato_412" data-name="Tracciato 412" d="M84.689,195.586a.512.512,0,0,1,.264-.456.335.335,0,0,1,.514.172.4.4,0,0,1-.254.621l-.038.012c-.3.1-.484-.028-.487-.349" transform="translate(-67.128 -154.62)" fill="#fff"/>
    <path id="Tracciato_413" data-name="Tracciato 413" d="M134.6,148.545c.167.04.31.068.448.109a.239.239,0,0,1,.172.24.279.279,0,0,1-.142.3,1.249,1.249,0,0,1-.379.1.505.505,0,0,1-.469-.494.232.232,0,0,1,.095-.161,1.491,1.491,0,0,1,.275-.1" transform="translate(-106.401 -117.744)" fill="#fff"/>
    <path id="Tracciato_414" data-name="Tracciato 414" d="M140.865,157.3a.367.367,0,0,1-.239.311.361.361,0,0,1-.437-.059,1.033,1.033,0,0,1-.158-.268c-.116-.262-.027-.45.334-.425a.481.481,0,0,1,.463.309c.018.049.028.1.036.132" transform="translate(-110.958 -124.332)" fill="#fff"/>
    <path id="Tracciato_415" data-name="Tracciato 415" d="M264.592,87.009c.061.013.19.042.32.066a.277.277,0,0,1,.1.475.4.4,0,0,1-.4.108,1.177,1.177,0,0,1-.284-.139.225.225,0,0,1-.125-.266.3.3,0,0,1,.278-.244c.013,0,.027,0,.111,0" transform="translate(-209.413 -68.967)" fill="#fff"/>
    <path id="Tracciato_416" data-name="Tracciato 416" d="M144.564,144.673a.422.422,0,0,1,.371.47.342.342,0,0,1-.51.179.605.605,0,0,1-.163-.167.279.279,0,0,1-.037-.329.345.345,0,0,1,.339-.153" transform="translate(-114.288 -114.673)" fill="#fff"/>
    <path id="Tracciato_417" data-name="Tracciato 417" d="M34.212,164.454a26.76,26.76,0,0,1-2.952.008,1.207,1.207,0,0,1-.05-.253c0-.836.008-1.672.027-2.509a2.657,2.657,0,0,1,.233-.962A1.16,1.16,0,0,1,32.514,160a1.187,1.187,0,0,1,1.221.581,3.43,3.43,0,0,1,.307.73,4.319,4.319,0,0,1,.185,1.176c.01.6.006,1.195.006,1.792a1.651,1.651,0,0,1-.021.178" transform="translate(-24.739 -126.816)" fill="#0d3080"/>
    <path id="Tracciato_418" data-name="Tracciato 418" d="M9.03,166.343a1.554,1.554,0,0,1-.03-.209c.019-.8.031-1.592.066-2.388a2.3,2.3,0,0,1,.141-.617,1.211,1.211,0,0,1,1.433-.788,1.2,1.2,0,0,1,.915.695,1.63,1.63,0,0,1,.194.685c.013.81.015,1.619.018,2.429a.821.821,0,0,1-.044.174,7.3,7.3,0,0,1-.872.019c-.306,0-.611,0-.917,0Z" transform="translate(-7.134 -128.662)" fill="#0d3080"/>
    <path id="Tracciato_419" data-name="Tracciato 419" d="M18.369,115.032a1.29,1.29,0,0,1,.034.182,17.838,17.838,0,0,1-.049,2.452c-.413-.1-.8-.278-1.194-.418s-.774-.285-1.16-.43-.8-.271-1.232-.471a1.944,1.944,0,0,1,.2-.117,29.554,29.554,0,0,1,3.4-1.2" transform="translate(-11.707 -91.18)" fill="#0d3080"/>
    <path id="Tracciato_420" data-name="Tracciato 420" d="M235.01,144.691a.516.516,0,0,1-.152.392,1.866,1.866,0,0,1-.183.152q-.712.542-1.425,1.083c-.063.048-.13.091-.194.139a.544.544,0,0,1-.6.022.237.237,0,0,1-.113-.334.674.674,0,0,1,.122-.155q.594-.587,1.192-1.17a2.524,2.524,0,0,1,.773-.48.386.386,0,0,1,.535.2.8.8,0,0,1,.045.154" transform="translate(-184.143 -114.378)" fill="#fff"/>
    <path id="Tracciato_421" data-name="Tracciato 421" d="M244.167,148.63a.206.206,0,0,1,.211.144.466.466,0,0,1-.079.484,1.424,1.424,0,0,1-.193.2c-.22.191-.442.378-.665.567a.334.334,0,0,1-.33.085.28.28,0,0,1-.171-.411.516.516,0,0,1,.071-.1c.266-.276.529-.556.8-.825a.385.385,0,0,1,.353-.147" transform="translate(-192.536 -117.811)" fill="#fff"/>
    <path id="Tracciato_422" data-name="Tracciato 422" d="M355.067,14.3a2.089,2.089,0,0,0-.587,0q-.144.021-.294.048-.138-1.855-.275-3.587t-.337-3.5h-.025q-.862,1.732-1.693,3.443t-1.58,3.58h-.113q-.737-1.718-1.562-3.47t-1.649-3.553h-.025q-.087.853-.194,1.849t-.193,1.965q-.088.969-.15,1.835t-.063,1.443c-.075-.018-.148-.034-.218-.048a1.164,1.164,0,0,0-.437,0c-.071.014-.144.03-.219.048q.162-1.141.337-2.385t.331-2.494q.156-1.25.3-2.467t.244-2.316h.213q.862,1.952,1.743,3.793t1.843,3.779l.362-.756q.237-.495.549-1.12t.675-1.361l.731-1.484q.368-.749.724-1.484t.668-1.367h.162q.138,1.319.263,2.549t.244,2.419q.119,1.189.244,2.35t.275,2.343q-.15-.028-.294-.048m2.767-8.418a.594.594,0,0,1-.9,0,.747.747,0,0,1,0-.989.594.594,0,0,1,.9,0,.746.746,0,0,1,0,.989M356.9,9.049q-.018-.68-.081-1.271a2.336,2.336,0,0,0,1.124,0q-.063.591-.081,1.271t-.019,1.3v1.429q0,.618.019,1.3t.081,1.271a2.33,2.33,0,0,0-1.124,0q.063-.591.081-1.271t.019-1.3V10.348q0-.619-.019-1.3m7.878,2.2q-.025.625-.025,1.326v.893q0,.44.025.88-.138-.028-.262-.048a1.623,1.623,0,0,0-.262-.021A1.5,1.5,0,0,0,364,14.3q-.119.021-.256.048.025-.756.056-1.512t.031-1.553v-.838a2.734,2.734,0,0,0-.369-1.553,1.147,1.147,0,0,0-.993-.536,1.444,1.444,0,0,0-1.281.591,2.911,2.911,0,0,0-.406,1.663v1.168q0,.618.019,1.3t.081,1.271a2.33,2.33,0,0,0-1.124,0q.062-.591.081-1.271t.019-1.3V10.348q0-.619-.019-1.3t-.081-1.271a2.626,2.626,0,0,0,.562.069,2.441,2.441,0,0,0,.5-.069q-.038.564-.038,1.1h.025a2.754,2.754,0,0,1,.837-.914,2.056,2.056,0,0,1,1.162-.323,2.38,2.38,0,0,1,.706.11,1.651,1.651,0,0,1,.643.378,1.96,1.96,0,0,1,.468.728,3.243,3.243,0,0,1,.181,1.175q0,.592-.025,1.217m2.849-5.367a.594.594,0,0,1-.9,0,.747.747,0,0,1,0-.989.594.594,0,0,1,.9,0,.747.747,0,0,1,0,.989M366.7,9.049q-.019-.68-.081-1.271a2.337,2.337,0,0,0,1.124,0q-.063.591-.081,1.271t-.019,1.3v1.429q0,.618.019,1.3t.081,1.271a2.33,2.33,0,0,0-1.124,0q.062-.591.081-1.271t.019-1.3V10.348q0-.619-.019-1.3m4.079,1.313a6.112,6.112,0,0,0,.712.247,3.427,3.427,0,0,1,.712.288,1.542,1.542,0,0,1,.543.509,1.626,1.626,0,0,1,.219.907,2.065,2.065,0,0,1-.156.783,2.2,2.2,0,0,1-.45.694,2.307,2.307,0,0,1-.706.5,2.193,2.193,0,0,1-.937.192,2.775,2.775,0,0,1-.962-.144,3.588,3.588,0,0,1-.65-.309,3.832,3.832,0,0,0,.156-.488,2.1,2.1,0,0,0,.081-.515h.15a1.467,1.467,0,0,0,.194.3,1.936,1.936,0,0,0,.312.309,1.7,1.7,0,0,0,.412.241,1.309,1.309,0,0,0,.949.013,1.217,1.217,0,0,0,.387-.233,1.076,1.076,0,0,0,.269-.385,1.356,1.356,0,0,0,.1-.536.9.9,0,0,0-.219-.653,1.705,1.705,0,0,0-.543-.371,5.411,5.411,0,0,0-.712-.254,2.823,2.823,0,0,1-.712-.309,1.736,1.736,0,0,1-.544-.529,1.629,1.629,0,0,1-.219-.907,2.411,2.411,0,0,1,.137-.831A1.8,1.8,0,0,1,370.353,7.8a2.337,2.337,0,0,1,.887-.158,1.973,1.973,0,0,1,.781.137q.319.137.606.247a1.955,1.955,0,0,0-.1.234q-.05.137-.094.275a2.4,2.4,0,0,0-.069.261c-.017.082-.029.151-.038.206h-.15a1.308,1.308,0,0,0-.388-.591,1.02,1.02,0,0,0-.712-.261,1.081,1.081,0,0,0-.375.069,1.014,1.014,0,0,0-.337.206,1.083,1.083,0,0,0-.25.357,1.254,1.254,0,0,0-.1.522.975.975,0,0,0,.219.68,1.525,1.525,0,0,0,.543.378m4.41,3.03a1.085,1.085,0,0,0,.3.474.834.834,0,0,0,.575.179,1.747,1.747,0,0,0,.268-.028,1.938,1.938,0,0,0,.294-.069v.33a3.7,3.7,0,0,1-.468.145,2.115,2.115,0,0,1-.493.062,1.42,1.42,0,0,1-1.162-.454,1.928,1.928,0,0,1-.375-1.264q0-.371.012-.8t.025-.948q.012-.515.031-1.141t.019-1.4h-.4a4.168,4.168,0,0,0-.45.028q.012-.082.019-.158t.006-.158c0-.046,0-.091-.006-.137s-.011-.091-.019-.137q.562.041.824.041-.013-.275-.019-.687t-.031-.852l1.037-.481h.063q-.038.523-.056,1.024t-.044,1.01q.137,0,.512-.007t.812-.034a.835.835,0,0,0-.012.151v.289a.752.752,0,0,0,.012.137q-.325-.027-.712-.028h-.612a4.32,4.32,0,0,0-.025.44q-.013.385-.025.914t-.025,1.106q-.013.577-.012,1.031,0,.385.019.756a2.452,2.452,0,0,0,.119.667m7-2.68c0,.087-.011.176-.019.268l-1.337-.028q-.663-.013-1.337-.014-.412,0-.818.014l-.818.028a1.8,1.8,0,0,0-.012.206v.179a3.39,3.39,0,0,0,.144,1,2.342,2.342,0,0,0,.419.8,2.014,2.014,0,0,0,.674.536,2.043,2.043,0,0,0,.925.2,1.843,1.843,0,0,0,.512-.075,2.781,2.781,0,0,0,.981-.515,2.474,2.474,0,0,0,.381-.385l.062.041-.075.673a3.739,3.739,0,0,1-.937.584,2.762,2.762,0,0,1-1.149.254,3,3,0,0,1-1.231-.247,2.946,2.946,0,0,1-.962-.68,3,3,0,0,1-.625-1.024,3.658,3.658,0,0,1-.219-1.278,4.272,4.272,0,0,1,.737-2.646,2.507,2.507,0,0,1,2.124-.969,2.667,2.667,0,0,1,1.137.227,2.378,2.378,0,0,1,.812.6,2.453,2.453,0,0,1,.481.886,3.679,3.679,0,0,1,.156,1.086c0,.092,0,.181-.006.268m-1.074-1.038a2.633,2.633,0,0,0-.225-.77,1.606,1.606,0,0,0-.468-.591,1.246,1.246,0,0,0-.787-.234,1.285,1.285,0,0,0-.781.234,1.926,1.926,0,0,0-.525.584,2.922,2.922,0,0,0-.312.77,4.411,4.411,0,0,0-.131.79l.806.027q.418.014.818.014c.275,0,.554,0,.838-.014l.824-.027a5.835,5.835,0,0,0-.056-.783m5.041-1.45q-.012.337-.012.612l-.088.069a.552.552,0,0,0-.244-.151,1.031,1.031,0,0,0-.368-.069.979.979,0,0,0-.537.151,1.3,1.3,0,0,0-.4.405,2.017,2.017,0,0,0-.25.6,3.087,3.087,0,0,0-.087.749v1.512q0,.6.006,1.024t.012.7q.006.282.031.515a2.069,2.069,0,0,0-.5-.069,1.616,1.616,0,0,0-.263.021q-.125.021-.262.048.038-.508.044-1.313t.006-1.972v-.44q0-.536-.006-1.244t-.044-1.6q.137.028.262.048a1.593,1.593,0,0,0,.263.021,2.068,2.068,0,0,0,.5-.069q-.05.495-.056.783t-.006.55l.025.013a3.5,3.5,0,0,1,.787-1.113,1.309,1.309,0,0,1,.862-.371,1.205,1.205,0,0,1,.193.014.942.942,0,0,1,.206.069,1.674,1.674,0,0,0-.075.5m6.178,4.425a2.942,2.942,0,0,1-.706,1.058,2.728,2.728,0,0,1-.981.591,3.258,3.258,0,0,1-2.168,0,2.733,2.733,0,0,1-.974-.591,2.934,2.934,0,0,1-.706-1.058,4.166,4.166,0,0,1-.268-1.587,4.171,4.171,0,0,1,.268-1.587,2.943,2.943,0,0,1,.706-1.058,2.738,2.738,0,0,1,.974-.591,3.258,3.258,0,0,1,2.168,0,2.733,2.733,0,0,1,.981.591,2.951,2.951,0,0,1,.706,1.058,4.175,4.175,0,0,1,.269,1.587,4.171,4.171,0,0,1-.269,1.587m-.924-2.7a3.157,3.157,0,0,0-.319-.955,1.8,1.8,0,0,0-.6-.666,1.85,1.85,0,0,0-1.849,0,1.8,1.8,0,0,0-.6.666,3.159,3.159,0,0,0-.318.955,6.644,6.644,0,0,0,0,2.227,3.157,3.157,0,0,0,.318.955,1.805,1.805,0,0,0,.6.667,1.852,1.852,0,0,0,1.849,0,1.807,1.807,0,0,0,.6-.667,3.155,3.155,0,0,0,.319-.955,6.674,6.674,0,0,0,0-2.227" transform="translate(-273.823 -3.714)" fill="#fff"/>
    <path id="Tracciato_423" data-name="Tracciato 423" d="M351.469,96.148a3.382,3.382,0,0,1-.618,1.079,2.474,2.474,0,0,1-.868.646,2.415,2.415,0,0,1-.975.213,2.006,2.006,0,0,1-1.187-.343,2.32,2.32,0,0,1-.775-1h-.025v.866q0,.481.006,1.024t.019,1.079q.012.536.031,1.024t.044.831a2.337,2.337,0,0,0-1.124,0q.025-.344.044-.831t.031-1.024q.012-.536.019-1.079t.006-1.024V95.379q0-.467-.006-1.017t-.019-1.093q-.013-.543-.031-1.038T346,91.379a2.337,2.337,0,0,0,1.124,0q-.05.357-.075.687t-.025.66h.025a2.643,2.643,0,0,1,.256-.474,2.573,2.573,0,0,1,.419-.481,2.074,2.074,0,0,1,1.437-.529,2.352,2.352,0,0,1,.937.2,2.262,2.262,0,0,1,.818.611,3.152,3.152,0,0,1,.575,1.051,4.7,4.7,0,0,1,.219,1.519,4.433,4.433,0,0,1-.237,1.525m-1.018-2.9a2.653,2.653,0,0,0-.4-.859,1.3,1.3,0,0,0-.556-.447,1.66,1.66,0,0,0-.612-.124,1.519,1.519,0,0,0-.862.233,1.839,1.839,0,0,0-.575.625,2.931,2.931,0,0,0-.325.921,6.018,6.018,0,0,0-.1,1.12,4,4,0,0,0,.462,2.137,1.515,1.515,0,0,0,1.362.721,1.347,1.347,0,0,0,.781-.227,1.761,1.761,0,0,0,.549-.632,3.345,3.345,0,0,0,.325-.948,6.069,6.069,0,0,0,.106-1.161,4.962,4.962,0,0,0-.156-1.361m7.346,1.065q-.007.131-.019.268l-1.337-.027q-.663-.014-1.337-.014-.412,0-.818.014l-.818.027a1.9,1.9,0,0,0-.012.206v.179a3.388,3.388,0,0,0,.144,1,2.34,2.34,0,0,0,.418.8,2.021,2.021,0,0,0,.675.536,2.045,2.045,0,0,0,.924.2,1.847,1.847,0,0,0,.512-.075,2.73,2.73,0,0,0,.512-.206,2.761,2.761,0,0,0,.469-.309,2.5,2.5,0,0,0,.381-.385l.062.041-.075.673a3.733,3.733,0,0,1-.937.584,2.764,2.764,0,0,1-1.149.254,3,3,0,0,1-1.231-.247,2.945,2.945,0,0,1-.962-.68,2.992,2.992,0,0,1-.625-1.024,3.649,3.649,0,0,1-.219-1.278,4.27,4.27,0,0,1,.737-2.646,2.507,2.507,0,0,1,2.124-.969,2.674,2.674,0,0,1,1.137.227,2.376,2.376,0,0,1,.812.6,2.444,2.444,0,0,1,.481.886,3.679,3.679,0,0,1,.156,1.086q0,.137-.006.268m-1.074-1.038a2.618,2.618,0,0,0-.225-.769,1.607,1.607,0,0,0-.469-.591,1.246,1.246,0,0,0-.787-.233,1.286,1.286,0,0,0-.781.233,1.931,1.931,0,0,0-.525.584,2.922,2.922,0,0,0-.312.769,4.431,4.431,0,0,0-.131.79l.806.027q.419.014.818.014t.837-.014l.825-.027a5.828,5.828,0,0,0-.056-.784m5.041-1.45q-.013.337-.013.611l-.087.069a.553.553,0,0,0-.244-.151,1.037,1.037,0,0,0-.369-.069.98.98,0,0,0-.537.151,1.3,1.3,0,0,0-.4.405,2.025,2.025,0,0,0-.25.6,3.089,3.089,0,0,0-.087.749v1.512q0,.6.006,1.024t.012.7q.006.282.031.515a2.074,2.074,0,0,0-.5-.069,1.6,1.6,0,0,0-.263.021c-.083.014-.171.029-.262.048q.037-.508.044-1.312t.006-1.972v-.44q0-.536-.006-1.244t-.044-1.6c.091.018.179.034.262.048a1.62,1.62,0,0,0,.263.021,2.074,2.074,0,0,0,.5-.069q-.05.495-.056.783t-.006.55l.025.014a3.51,3.51,0,0,1,.787-1.113,1.311,1.311,0,0,1,.862-.371,1.182,1.182,0,0,1,.194.014.907.907,0,0,1,.206.069,1.674,1.674,0,0,0-.075.5" transform="translate(-274.254 -72.323)" fill="#fff"/>
    <path id="Tracciato_424" data-name="Tracciato 424" d="M443.369,75.35a.594.594,0,0,1-.9,0,.747.747,0,0,1,0-.989.594.594,0,0,1,.9,0,.747.747,0,0,1,0,.989m-.931,3.168q-.019-.68-.081-1.271a2.337,2.337,0,0,0,1.124,0q-.062.591-.081,1.271t-.019,1.3v1.429q0,.618.019,1.3t.081,1.271a2.337,2.337,0,0,0-1.124,0q.062-.591.081-1.271t.019-1.3V79.816q0-.619-.019-1.3m11.269,3.271a3.666,3.666,0,0,1-.6,1.148,2.756,2.756,0,0,1-.9.749,2.4,2.4,0,0,1-1.118.268,1.991,1.991,0,0,1-1.081-.3,2.251,2.251,0,0,1-.731-.7q-.225.193-.431.392t-.406.405h-.225q.025-.316.044-.79t.031-1q.012-.529.019-1.072t.006-1.024V77.37q0-.467-.006-1.017t-.019-1.085q-.013-.536-.031-1.024t-.044-.832a2.625,2.625,0,0,0,.562.069,2.121,2.121,0,0,0,.287-.021c.1-.014.208-.03.325-.048q-.037.275-.056.873t-.038,1.333q-.019.735-.031,1.512t-.025,1.408h.025a3.27,3.27,0,0,1,.937-1.079,2.052,2.052,0,0,1,1.187-.35,2.253,2.253,0,0,1,1.124.268,2.406,2.406,0,0,1,.787.708,3.167,3.167,0,0,1,.469,1.031,4.777,4.777,0,0,1,.156,1.223,4.633,4.633,0,0,1-.219,1.45m-1.024-2.611a2.8,2.8,0,0,0-.375-.818,1.641,1.641,0,0,0-.537-.5,1.275,1.275,0,0,0-.631-.172,1.8,1.8,0,0,0-.75.158,1.539,1.539,0,0,0-.612.522,2.892,2.892,0,0,0-.419.948,5.638,5.638,0,0,0-.156,1.436,3.757,3.757,0,0,0,.462,2.068,1.531,1.531,0,0,0,1.362.694,1.218,1.218,0,0,0,.712-.227,1.968,1.968,0,0,0,.568-.653,3.751,3.751,0,0,0,.381-1.017,5.836,5.836,0,0,0,.137-1.319,3.98,3.98,0,0,0-.143-1.12m7.334,1q-.006.131-.019.268l-1.337-.027q-.662-.014-1.337-.014-.412,0-.818.014l-.818.027a1.785,1.785,0,0,0-.013.206v.179a3.4,3.4,0,0,0,.144,1,2.342,2.342,0,0,0,.418.8,2.025,2.025,0,0,0,.675.536,2.046,2.046,0,0,0,.925.2,1.847,1.847,0,0,0,.512-.075,2.769,2.769,0,0,0,.981-.515,2.483,2.483,0,0,0,.381-.385l.063.041-.075.673a3.742,3.742,0,0,1-.937.584,2.764,2.764,0,0,1-1.149.254,2.994,2.994,0,0,1-1.231-.247,2.945,2.945,0,0,1-.962-.68A2.99,2.99,0,0,1,454.795,82a3.654,3.654,0,0,1-.219-1.278,4.27,4.27,0,0,1,.737-2.646,2.507,2.507,0,0,1,2.124-.969,2.675,2.675,0,0,1,1.137.227,2.379,2.379,0,0,1,.812.6,2.446,2.446,0,0,1,.481.886,3.681,3.681,0,0,1,.156,1.086c0,.092,0,.181-.006.268m-1.074-1.038a2.623,2.623,0,0,0-.225-.769,1.607,1.607,0,0,0-.469-.591,1.245,1.245,0,0,0-.787-.233,1.285,1.285,0,0,0-.781.233,1.926,1.926,0,0,0-.525.584,2.922,2.922,0,0,0-.312.77,4.43,4.43,0,0,0-.131.79l.806.028q.418.014.818.014t.837-.014l.825-.028a5.809,5.809,0,0,0-.056-.783m7.1,1.574q-.025.626-.025,1.326v.893q0,.44.025.879c-.092-.018-.179-.034-.263-.048a1.594,1.594,0,0,0-.262-.021,1.483,1.483,0,0,0-.256.021c-.079.014-.164.029-.256.048q.025-.756.056-1.512t.031-1.553v-.838a2.736,2.736,0,0,0-.369-1.553,1.148,1.148,0,0,0-.993-.536,1.444,1.444,0,0,0-1.281.591,2.914,2.914,0,0,0-.406,1.663v1.168q0,.618.019,1.3t.081,1.271a2.337,2.337,0,0,0-1.124,0q.062-.591.081-1.271t.019-1.3V79.816q0-.619-.019-1.3t-.081-1.271a2.64,2.64,0,0,0,.562.069,2.452,2.452,0,0,0,.5-.069q-.038.564-.038,1.1h.025a2.755,2.755,0,0,1,.837-.914,2.056,2.056,0,0,1,1.162-.323,2.389,2.389,0,0,1,.706.11,1.65,1.65,0,0,1,.643.378,1.96,1.96,0,0,1,.469.728,3.248,3.248,0,0,1,.181,1.175q0,.591-.025,1.216m2.848-5.367a.594.594,0,0,1-.9,0,.747.747,0,0,1,0-.989.593.593,0,0,1,.9,0,.746.746,0,0,1,0,.989m-.931,3.168q-.019-.68-.081-1.271a2.338,2.338,0,0,0,1.125,0q-.063.591-.081,1.271t-.019,1.3v1.429q0,.618.019,1.3t.081,1.271a2.338,2.338,0,0,0-1.125,0q.063-.591.081-1.271t.019-1.3V79.816q0-.619-.019-1.3m10.944,1.663q-.006.131-.019.268l-1.337-.027q-.662-.014-1.337-.014-.412,0-.818.014l-.818.027a1.84,1.84,0,0,0-.013.206v.179a3.4,3.4,0,0,0,.144,1,2.343,2.343,0,0,0,.419.8,2.023,2.023,0,0,0,.675.536,2.045,2.045,0,0,0,.925.2,1.844,1.844,0,0,0,.512-.075,2.775,2.775,0,0,0,.981-.515,2.479,2.479,0,0,0,.381-.385l.062.041-.075.673a3.741,3.741,0,0,1-.937.584,2.766,2.766,0,0,1-1.149.254,2.994,2.994,0,0,1-1.231-.247,2.947,2.947,0,0,1-.962-.68A3,3,0,0,1,473.685,82a3.658,3.658,0,0,1-.219-1.278,4.271,4.271,0,0,1,.737-2.646,2.507,2.507,0,0,1,2.124-.969,2.673,2.673,0,0,1,1.137.227,2.378,2.378,0,0,1,.812.6,2.448,2.448,0,0,1,.481.886,3.68,3.68,0,0,1,.156,1.086c0,.092,0,.181-.006.268m-1.074-1.038a2.62,2.62,0,0,0-.225-.769,1.607,1.607,0,0,0-.468-.591,1.247,1.247,0,0,0-.787-.233,1.286,1.286,0,0,0-.781.233,1.931,1.931,0,0,0-.525.584,2.938,2.938,0,0,0-.312.77,4.426,4.426,0,0,0-.131.79l.806.028q.419.014.818.014c.275,0,.554,0,.837-.014l.824-.028a5.837,5.837,0,0,0-.056-.783m6.516-3.875q-.013.536-.019,1.085t-.006,1.017v2.488q0,.481.006,1.024t.019,1.079q.012.536.031,1.024t.044.831a2.337,2.337,0,0,0-1.124,0q.025-.343.044-.831t.031-1.024q.012-.536.019-1.079t.006-1.024V77.37q0-.467-.006-1.017t-.019-1.085q-.012-.536-.031-1.024t-.044-.832a2.33,2.33,0,0,0,1.124,0q-.025.344-.044.832t-.031,1.024m6.815,4.913q-.007.131-.019.268l-1.337-.027q-.662-.014-1.337-.014-.412,0-.818.014l-.818.027a1.839,1.839,0,0,0-.012.206v.179a3.393,3.393,0,0,0,.144,1,2.338,2.338,0,0,0,.418.8,2.023,2.023,0,0,0,.675.536,2.045,2.045,0,0,0,.925.2,1.849,1.849,0,0,0,.512-.075,2.777,2.777,0,0,0,.981-.515,2.482,2.482,0,0,0,.381-.385l.063.041-.075.673a3.745,3.745,0,0,1-.937.584,2.766,2.766,0,0,1-1.149.254,3,3,0,0,1-1.231-.247,2.943,2.943,0,0,1-.962-.68A2.989,2.989,0,0,1,485.942,82a3.652,3.652,0,0,1-.219-1.278,4.27,4.27,0,0,1,.737-2.646,2.507,2.507,0,0,1,2.124-.969,2.674,2.674,0,0,1,1.137.227,2.378,2.378,0,0,1,.812.6,2.446,2.446,0,0,1,.481.886,3.68,3.68,0,0,1,.156,1.086q0,.137-.006.268m-1.074-1.038a2.626,2.626,0,0,0-.225-.769,1.6,1.6,0,0,0-.468-.591,1.246,1.246,0,0,0-.787-.233,1.284,1.284,0,0,0-.781.233,1.932,1.932,0,0,0-.525.584,2.929,2.929,0,0,0-.312.77,4.445,4.445,0,0,0-.131.79l.806.028q.418.014.818.014t.837-.014l.825-.028a5.834,5.834,0,0,0-.056-.783" transform="translate(-350.575 -58.19)" fill="#fff"/>
    <path id="Tracciato_425" data-name="Tracciato 425" d="M350.8,152.1a1.743,1.743,0,0,1-.5.068.856.856,0,0,1-.683-.272,1.176,1.176,0,0,1-.279-.665,4.222,4.222,0,0,1-.976.824,2.317,2.317,0,0,1-1.182.28,1.844,1.844,0,0,1-.673-.129,1.772,1.772,0,0,1-.584-.37,1.889,1.889,0,0,1-.412-.582,1.829,1.829,0,0,1-.158-.779,1.867,1.867,0,0,1,.515-1.406,2.688,2.688,0,0,1,1.422-.665q.742-.136,1.162-.234a2.735,2.735,0,0,0,.618-.2.44.44,0,0,0,.24-.25,1.378,1.378,0,0,0,.041-.371,3.128,3.128,0,0,0-.083-.726,1.765,1.765,0,0,0-.261-.6,1.362,1.362,0,0,0-.467-.416,1.439,1.439,0,0,0-.7-.158,2.025,2.025,0,0,0-1.024.272,1.717,1.717,0,0,0-.708.756h-.151v-.786a3.824,3.824,0,0,1,1.144-.7,3.26,3.26,0,0,1,1.076-.181,2.517,2.517,0,0,1,.91.159,1.948,1.948,0,0,1,.7.453,2.119,2.119,0,0,1,.455.711,2.448,2.448,0,0,1,.166.915q0,.862-.028,1.716t-.027,1.807q0,.181.007.385a1.236,1.236,0,0,0,.062.363.7.7,0,0,0,.158.265.413.413,0,0,0,.309.106c.046,0,.094,0,.144-.007a.313.313,0,0,0,.144-.053v.333a2.383,2.383,0,0,1-.378.144m-2.3-3.515a4.757,4.757,0,0,0-.942.242,2.042,2.042,0,0,0-.763.491,1.3,1.3,0,0,0-.316.945,1.437,1.437,0,0,0,.371,1.073,1.155,1.155,0,0,0,.825.363,1.578,1.578,0,0,0,.955-.317,2.3,2.3,0,0,0,.666-.741l.055-2.268a4.186,4.186,0,0,1-.852.212m5.044,2.547a1.194,1.194,0,0,0,.33.522.918.918,0,0,0,.632.2,1.918,1.918,0,0,0,.3-.03,2.1,2.1,0,0,0,.323-.075v.363a4.059,4.059,0,0,1-.515.159,2.309,2.309,0,0,1-.543.068,1.564,1.564,0,0,1-1.278-.5,2.124,2.124,0,0,1-.412-1.391q0-.409.014-.885t.028-1.043q.014-.567.034-1.255t.021-1.534h-.44a4.636,4.636,0,0,0-.495.03c.009-.06.016-.118.021-.174s.007-.113.007-.174,0-.1-.007-.151-.012-.1-.021-.151q.618.046.907.045-.014-.3-.021-.756t-.034-.937l1.141-.529h.069q-.041.575-.062,1.126t-.048,1.111c.1,0,.289,0,.563-.007s.572-.018.893-.038a.94.94,0,0,0-.013.166v.318a.845.845,0,0,0,.013.151q-.357-.03-.783-.03h-.673a4.82,4.82,0,0,0-.028.484q-.014.424-.028,1.005t-.027,1.217q-.014.635-.014,1.134,0,.423.021.832a2.69,2.69,0,0,0,.13.733m3.477,0a1.2,1.2,0,0,0,.33.522.919.919,0,0,0,.632.2,1.925,1.925,0,0,0,.3-.03,2.11,2.11,0,0,0,.323-.075v.363a4.079,4.079,0,0,1-.515.159,2.31,2.31,0,0,1-.543.068,1.563,1.563,0,0,1-1.278-.5,2.122,2.122,0,0,1-.412-1.391q0-.409.014-.885t.028-1.043q.014-.567.034-1.255t.021-1.534h-.44a4.637,4.637,0,0,0-.495.03c.009-.06.016-.118.021-.174s.007-.113.007-.174,0-.1-.007-.151-.012-.1-.021-.151q.619.046.907.045-.014-.3-.021-.756t-.034-.937l1.141-.529h.069q-.041.575-.062,1.126t-.048,1.111q.152,0,.563-.007t.893-.038a.934.934,0,0,0-.014.166v.318a.839.839,0,0,0,.014.151q-.358-.03-.783-.03h-.674q-.013.061-.027.484t-.028,1.005q-.014.582-.027,1.217t-.014,1.134q0,.423.021.832a2.711,2.711,0,0,0,.13.733m3.642-8.262a.653.653,0,0,1-.99,0,.822.822,0,0,1,0-1.088.653.653,0,0,1,.99,0,.821.821,0,0,1,0,1.088m-1.024,3.485q-.02-.748-.089-1.4a2.565,2.565,0,0,0,1.237,0q-.069.65-.089,1.4t-.021,1.429v1.572q0,.68.021,1.428t.089,1.4a2.572,2.572,0,0,0-1.237,0q.069-.65.089-1.4t.021-1.428V147.78q0-.681-.021-1.429m6.975,2.222q-.715,1.792-1.306,3.605a1.4,1.4,0,0,0-.426-.075,1.527,1.527,0,0,0-.44.075q-.632-1.814-1.271-3.605t-1.395-3.621q.179.03.344.053a2.516,2.516,0,0,0,.344.023,2.034,2.034,0,0,0,.3-.023c.1-.015.2-.033.3-.053q.426,1.482.935,2.94t1.113,2.955q.275-.62.55-1.338t.536-1.489q.261-.771.515-1.55t.5-1.519a1.237,1.237,0,0,0,.852,0q-.742,1.829-1.457,3.621m3.807-5.707a.653.653,0,0,1-.989,0,.821.821,0,0,1,0-1.088.653.653,0,0,1,.989,0,.821.821,0,0,1,0,1.088m-1.024,3.485q-.021-.748-.089-1.4a2.564,2.564,0,0,0,1.237,0q-.069.65-.089,1.4t-.021,1.429v1.572q0,.68.021,1.428t.089,1.4a2.572,2.572,0,0,0-1.237,0q.069-.65.089-1.4t.021-1.428V147.78q0-.681-.021-1.429m4.336,4.777a1.193,1.193,0,0,0,.33.522.917.917,0,0,0,.632.2,1.917,1.917,0,0,0,.3-.03,2.11,2.11,0,0,0,.323-.075v.363a4.078,4.078,0,0,1-.515.159,2.312,2.312,0,0,1-.543.068,1.563,1.563,0,0,1-1.278-.5,2.122,2.122,0,0,1-.412-1.391q0-.409.014-.885t.028-1.043q.013-.567.034-1.255t.021-1.534h-.44a4.642,4.642,0,0,0-.495.03c.009-.06.016-.118.021-.174s.007-.113.007-.174,0-.1-.007-.151-.012-.1-.021-.151q.619.046.907.045-.014-.3-.021-.756t-.034-.937l1.141-.529h.069q-.041.575-.062,1.126t-.048,1.111q.151,0,.564-.007t.893-.038a.921.921,0,0,0-.014.166v.318a.829.829,0,0,0,.014.151q-.358-.03-.784-.03h-.673a4.841,4.841,0,0,0-.027.484q-.014.424-.027,1.005t-.028,1.217q-.014.635-.014,1.134,0,.423.021.832a2.694,2.694,0,0,0,.131.733m7.263.968a1.742,1.742,0,0,1-.5.068.856.856,0,0,1-.683-.272,1.176,1.176,0,0,1-.279-.665,4.222,4.222,0,0,1-.976.824,2.318,2.318,0,0,1-1.182.28,1.846,1.846,0,0,1-.673-.129,1.771,1.771,0,0,1-.584-.37,1.89,1.89,0,0,1-.412-.582,1.829,1.829,0,0,1-.158-.779,1.867,1.867,0,0,1,.515-1.406,2.689,2.689,0,0,1,1.422-.665q.742-.136,1.161-.234a2.74,2.74,0,0,0,.619-.2.44.44,0,0,0,.24-.25,1.371,1.371,0,0,0,.041-.371,3.128,3.128,0,0,0-.083-.726,1.765,1.765,0,0,0-.261-.6,1.359,1.359,0,0,0-.467-.416,1.439,1.439,0,0,0-.7-.158,2.025,2.025,0,0,0-1.024.272,1.714,1.714,0,0,0-.708.756h-.151v-.786a3.827,3.827,0,0,1,1.144-.7,3.262,3.262,0,0,1,1.076-.181,2.515,2.515,0,0,1,.91.159,1.946,1.946,0,0,1,.7.453,2.123,2.123,0,0,1,.455.711,2.453,2.453,0,0,1,.165.915q0,.862-.027,1.716t-.028,1.807q0,.181.007.385a1.241,1.241,0,0,0,.062.363.7.7,0,0,0,.158.265.412.412,0,0,0,.309.106c.046,0,.094,0,.144-.007a.313.313,0,0,0,.144-.053v.333a2.38,2.38,0,0,1-.378.144m-2.3-3.515a4.753,4.753,0,0,0-.942.242,2.042,2.042,0,0,0-.763.491,1.3,1.3,0,0,0-.316.945,1.436,1.436,0,0,0,.371,1.073,1.155,1.155,0,0,0,.825.363,1.578,1.578,0,0,0,.955-.317,2.294,2.294,0,0,0,.667-.741l.055-2.268a4.18,4.18,0,0,1-.852.212m-1.938-6.35a3.214,3.214,0,0,1-.33-.28.57.57,0,0,1-.165-.431.427.427,0,0,1,.158-.363.5.5,0,0,1,.3-.121.584.584,0,0,1,.309.1,1.483,1.483,0,0,1,.309.264l2.02,2.252h-.577Zm14.211,4.233h-.11a2.153,2.153,0,0,0-.261-.4,2.3,2.3,0,0,0-.392-.378,2.2,2.2,0,0,0-.5-.287,1.574,1.574,0,0,0-.6-.113,2.151,2.151,0,0,0-1.065.249,2.03,2.03,0,0,0-.728.688,3.139,3.139,0,0,0-.412,1.036,6.039,6.039,0,0,0-.13,1.292,3.806,3.806,0,0,0,.612,2.351,2.094,2.094,0,0,0,1.766.794,2.016,2.016,0,0,0,.563-.083,3.05,3.05,0,0,0,1.079-.567,2.725,2.725,0,0,0,.419-.423l.069.045q-.055.363-.082.741a4.127,4.127,0,0,1-1.031.642,3.041,3.041,0,0,1-1.264.28,3.639,3.639,0,0,1-1.2-.2,2.962,2.962,0,0,1-1.072-.658,3.308,3.308,0,0,1-.776-1.172,4.534,4.534,0,0,1-.3-1.731,4.3,4.3,0,0,1,.3-1.693,3.434,3.434,0,0,1,.79-1.172,3.085,3.085,0,0,1,1.12-.68,3.92,3.92,0,0,1,1.292-.219,4.178,4.178,0,0,1,1.354.2,2.3,2.3,0,0,1,.859.461,4.661,4.661,0,0,0-.172.476q-.076.249-.131.522m7.05.771q-.014,1.1-.014,2.313,0,.68.014,1.338t.041,1.292a1.942,1.942,0,0,0-1.072,0q.028-.332.028-.65v-.65h-.028a2.711,2.711,0,0,1-.921,1.081,2.373,2.373,0,0,1-2.907-.28,2.566,2.566,0,0,1-.611-1.829q0-.8.021-1.368t.021-1.126q0-.529-.007-1.149t-.021-1.255a2.486,2.486,0,0,0,.577.076,2.444,2.444,0,0,0,.563-.076q-.069.892-.1,1.988t-.034,2.214a4.462,4.462,0,0,0,.124,1.2,1.752,1.752,0,0,0,.3.627,1.547,1.547,0,0,0,.488.4,1.444,1.444,0,0,0,.694.159,1.593,1.593,0,0,0,.962-.28,1.675,1.675,0,0,0,.563-.688q.1-.241.158-.431a2.293,2.293,0,0,0,.089-.491q.027-.3.034-.816t.007-1.406v-1.27q0-.665-.027-1.209c.1.02.2.038.288.053a1.836,1.836,0,0,0,.577,0c.092-.015.183-.033.275-.053q-.069,1.179-.082,2.283m3.229-4.46q-.014.589-.021,1.194t-.007,1.118v2.736q0,.529.007,1.126t.021,1.187q.014.589.034,1.126t.048.914a2.572,2.572,0,0,0-1.237,0q.028-.377.048-.914t.034-1.126q.014-.59.021-1.187t.007-1.126v-2.736q0-.513-.007-1.118t-.021-1.194q-.014-.59-.034-1.126t-.048-.914a2.571,2.571,0,0,0,1.237,0q-.028.378-.048.914t-.034,1.126m3.271,8.352a1.194,1.194,0,0,0,.33.522.919.919,0,0,0,.633.2,1.922,1.922,0,0,0,.3-.03,2.114,2.114,0,0,0,.323-.075v.363a4.072,4.072,0,0,1-.516.159,2.308,2.308,0,0,1-.543.068,1.564,1.564,0,0,1-1.278-.5,2.124,2.124,0,0,1-.412-1.391q0-.409.014-.885t.028-1.043q.014-.567.034-1.255t.021-1.534H403a4.637,4.637,0,0,0-.495.03c.009-.06.016-.118.021-.174s.007-.113.007-.174,0-.1-.007-.151-.012-.1-.021-.151q.618.046.907.045-.014-.3-.021-.756t-.034-.937l1.141-.529h.069q-.041.575-.062,1.126t-.048,1.111q.151,0,.563-.007t.893-.038a.94.94,0,0,0-.013.166v.318a.845.845,0,0,0,.013.151q-.357-.03-.783-.03h-.673q-.014.061-.028.484t-.028,1.005q-.014.582-.027,1.217t-.014,1.134q0,.423.021.832a2.692,2.692,0,0,0,.13.733m7.751-3.893q-.013,1.1-.013,2.313,0,.68.013,1.338t.042,1.292a1.941,1.941,0,0,0-1.072,0q.027-.332.028-.65v-.65h-.028a2.711,2.711,0,0,1-.921,1.081,2.373,2.373,0,0,1-2.907-.28,2.565,2.565,0,0,1-.612-1.829q0-.8.021-1.368t.021-1.126q0-.529-.007-1.149t-.021-1.255a2.487,2.487,0,0,0,.577.076,2.443,2.443,0,0,0,.563-.076q-.069.892-.1,1.988t-.034,2.214a4.453,4.453,0,0,0,.124,1.2,1.745,1.745,0,0,0,.3.627,1.548,1.548,0,0,0,.488.4,1.445,1.445,0,0,0,.694.159,1.592,1.592,0,0,0,.962-.28,1.669,1.669,0,0,0,.564-.688q.1-.241.158-.431a2.306,2.306,0,0,0,.09-.491q.027-.3.034-.816t.007-1.406v-1.27q0-.665-.028-1.209c.1.02.2.038.289.053a1.835,1.835,0,0,0,.577,0c.091-.015.183-.033.275-.053q-.069,1.179-.083,2.283m5.085-1.792q-.014.37-.014.673l-.1.075a.608.608,0,0,0-.268-.166,1.135,1.135,0,0,0-.405-.076,1.076,1.076,0,0,0-.591.166,1.428,1.428,0,0,0-.44.446,2.227,2.227,0,0,0-.275.665,3.387,3.387,0,0,0-.1.824v1.663q0,.665.007,1.126t.014.771q.007.31.034.567a2.285,2.285,0,0,0-.55-.075,1.746,1.746,0,0,0-.289.023c-.092.015-.188.033-.289.053q.041-.559.048-1.444t.007-2.169v-.484q0-.59-.007-1.368t-.048-1.761c.1.02.2.038.289.053a1.767,1.767,0,0,0,.289.023,2.276,2.276,0,0,0,.55-.076q-.055.545-.062.862t-.007.6l.028.015a3.853,3.853,0,0,1,.866-1.224,1.442,1.442,0,0,1,.948-.408,1.315,1.315,0,0,1,.213.015,1.025,1.025,0,0,1,.227.076,1.845,1.845,0,0,0-.082.552m5.793,6.652a1.739,1.739,0,0,1-.5.068.856.856,0,0,1-.683-.272,1.176,1.176,0,0,1-.279-.665,4.223,4.223,0,0,1-.976.824,2.318,2.318,0,0,1-1.182.28,1.848,1.848,0,0,1-.674-.129,1.773,1.773,0,0,1-.584-.37,1.9,1.9,0,0,1-.412-.582,1.826,1.826,0,0,1-.158-.779,1.866,1.866,0,0,1,.516-1.406,2.688,2.688,0,0,1,1.422-.665q.742-.136,1.161-.234a2.731,2.731,0,0,0,.619-.2.441.441,0,0,0,.241-.25,1.373,1.373,0,0,0,.041-.371,3.152,3.152,0,0,0-.082-.726,1.769,1.769,0,0,0-.261-.6,1.355,1.355,0,0,0-.467-.416,1.438,1.438,0,0,0-.7-.158,2.023,2.023,0,0,0-1.024.272,1.713,1.713,0,0,0-.708.756H418.3v-.786a3.825,3.825,0,0,1,1.144-.7,3.259,3.259,0,0,1,1.075-.181,2.517,2.517,0,0,1,.91.159,1.948,1.948,0,0,1,.7.453,2.123,2.123,0,0,1,.455.711,2.453,2.453,0,0,1,.166.915q0,.862-.028,1.716t-.027,1.807q0,.181.007.385a1.233,1.233,0,0,0,.062.363.7.7,0,0,0,.158.265.413.413,0,0,0,.309.106q.069,0,.144-.007a.314.314,0,0,0,.144-.053v.333a2.384,2.384,0,0,1-.378.144m-2.3-3.515a4.759,4.759,0,0,0-.942.242,2.043,2.043,0,0,0-.763.491,1.3,1.3,0,0,0-.316.945,1.435,1.435,0,0,0,.371,1.073,1.154,1.154,0,0,0,.825.363,1.58,1.58,0,0,0,.955-.317,2.3,2.3,0,0,0,.666-.741l.055-2.268a4.183,4.183,0,0,1-.852.212m5.25-5.805q-.014.589-.02,1.194t-.007,1.118v2.736q0,.529.007,1.126t.02,1.187q.014.589.034,1.126t.048.914a2.573,2.573,0,0,0-1.237,0q.027-.377.048-.914t.034-1.126q.013-.59.021-1.187t.007-1.126v-2.736q0-.513-.007-1.118t-.021-1.194q-.014-.59-.034-1.126t-.048-.914a2.572,2.572,0,0,0,1.237,0q-.028.378-.048.914t-.034,1.126m3.436.091a.653.653,0,0,1-.989,0,.821.821,0,0,1,0-1.088.653.653,0,0,1,.989,0,.821.821,0,0,1,0,1.088m-1.024,3.485q-.021-.748-.089-1.4a2.564,2.564,0,0,0,1.237,0q-.069.65-.089,1.4t-.021,1.429v1.572q0,.68.021,1.428t.089,1.4a2.572,2.572,0,0,0-1.237,0q.068-.65.089-1.4t.021-1.428V147.78q0-.681-.021-1.429" transform="translate(-273.738 -111.554)" fill="#fff"/>
    <path id="Tracciato_426" data-name="Tracciato 426" d="M351.017,222.8q-.007.146-.021.3l-1.5-.031q-.742-.015-1.5-.015-.462,0-.916.015l-.917.031a2.012,2.012,0,0,0-.014.231v.2a3.8,3.8,0,0,0,.161,1.124,2.623,2.623,0,0,0,.469.9,2.266,2.266,0,0,0,.755.6,2.292,2.292,0,0,0,1.035.223,2.069,2.069,0,0,0,.574-.085,3.107,3.107,0,0,0,1.1-.577,2.783,2.783,0,0,0,.427-.431l.07.046-.084.754a4.189,4.189,0,0,1-1.049.654,3.1,3.1,0,0,1-1.287.285,3.349,3.349,0,0,1-1.378-.277,3.3,3.3,0,0,1-1.077-.762,3.353,3.353,0,0,1-.7-1.147,4.089,4.089,0,0,1-.245-1.432,4.783,4.783,0,0,1,.826-2.963,2.808,2.808,0,0,1,2.379-1.085,2.993,2.993,0,0,1,1.274.254,2.663,2.663,0,0,1,.91.677,2.739,2.739,0,0,1,.538.993,4.115,4.115,0,0,1,.175,1.216c0,.1,0,.2-.007.3m-1.2-1.162a2.941,2.941,0,0,0-.252-.862,1.8,1.8,0,0,0-.525-.662,1.4,1.4,0,0,0-.881-.261,1.44,1.44,0,0,0-.875.261,2.162,2.162,0,0,0-.588.654,3.273,3.273,0,0,0-.35.862,4.984,4.984,0,0,0-.147.885l.9.031q.469.016.917.015t.938-.015l.924-.031a6.515,6.515,0,0,0-.063-.877m11.733,3.217a3.783,3.783,0,0,1-.693,1.208,2.77,2.77,0,0,1-.972.723,2.7,2.7,0,0,1-1.092.239,2.248,2.248,0,0,1-1.329-.385,2.6,2.6,0,0,1-.868-1.124h-.028v.97q0,.539.007,1.147t.021,1.208q.014.6.035,1.147t.049.931a2.616,2.616,0,0,0-1.259,0q.028-.385.049-.931t.035-1.147q.014-.6.021-1.208t.007-1.147v-2.494q0-.523-.007-1.139t-.021-1.223q-.014-.608-.035-1.162t-.049-.954a2.609,2.609,0,0,0,1.259,0q-.056.4-.084.77t-.028.739h.028a2.954,2.954,0,0,1,.287-.531,2.874,2.874,0,0,1,.469-.539,2.325,2.325,0,0,1,1.609-.592,2.636,2.636,0,0,1,1.05.223,2.529,2.529,0,0,1,.916.685,3.53,3.53,0,0,1,.644,1.177,5.273,5.273,0,0,1,.245,1.7,4.953,4.953,0,0,1-.266,1.709m-1.14-3.248a2.978,2.978,0,0,0-.448-.962,1.462,1.462,0,0,0-.623-.5,1.853,1.853,0,0,0-.686-.139,1.7,1.7,0,0,0-.965.262,2.059,2.059,0,0,0-.644.7,3.277,3.277,0,0,0-.364,1.031,6.734,6.734,0,0,0-.112,1.254,4.48,4.48,0,0,0,.518,2.393,1.7,1.7,0,0,0,1.525.808,1.511,1.511,0,0,0,.875-.254,1.971,1.971,0,0,0,.616-.708,3.743,3.743,0,0,0,.364-1.062,6.791,6.791,0,0,0,.119-1.3,5.559,5.559,0,0,0-.175-1.524m8.228,1.193q-.008.146-.021.3l-1.5-.031q-.741-.015-1.5-.015-.462,0-.917.015l-.917.031a2.041,2.041,0,0,0-.014.231v.2a3.8,3.8,0,0,0,.161,1.124,2.619,2.619,0,0,0,.469.9,2.224,2.224,0,0,0,1.791.823,2.071,2.071,0,0,0,.574-.085,3.065,3.065,0,0,0,.574-.231,3.1,3.1,0,0,0,.525-.346,2.79,2.79,0,0,0,.427-.431l.07.046-.084.754a4.188,4.188,0,0,1-1.05.654,3.1,3.1,0,0,1-1.287.285,3.348,3.348,0,0,1-1.378-.277,3.294,3.294,0,0,1-1.077-.762,3.354,3.354,0,0,1-.7-1.147,4.089,4.089,0,0,1-.245-1.432,4.783,4.783,0,0,1,.826-2.963,2.808,2.808,0,0,1,2.379-1.085,2.993,2.993,0,0,1,1.274.254,2.659,2.659,0,0,1,.909.677,2.739,2.739,0,0,1,.539.993,4.123,4.123,0,0,1,.175,1.216q0,.154-.007.3m-1.2-1.162a2.922,2.922,0,0,0-.252-.862,1.8,1.8,0,0,0-.525-.662,1.4,1.4,0,0,0-.882-.261,1.441,1.441,0,0,0-.875.261,2.164,2.164,0,0,0-.588.654,3.258,3.258,0,0,0-.35.862,4.928,4.928,0,0,0-.147.885l.9.031q.469.016.917.015t.937-.015l.924-.031a6.48,6.48,0,0,0-.063-.877m5.646-1.624q-.014.378-.014.685l-.1.077a.614.614,0,0,0-.273-.169,1.158,1.158,0,0,0-.413-.077,1.1,1.1,0,0,0-.6.169,1.463,1.463,0,0,0-.448.454,2.261,2.261,0,0,0-.28.677,3.443,3.443,0,0,0-.1.839v1.693q0,.677.007,1.147t.014.785q.007.316.035.577a2.31,2.31,0,0,0-.56-.077,1.829,1.829,0,0,0-.294.023c-.094.016-.191.033-.294.054q.042-.569.049-1.47t.007-2.209V222.7q0-.6-.007-1.393t-.049-1.793c.1.021.2.038.294.054a1.806,1.806,0,0,0,.294.023,2.311,2.311,0,0,0,.56-.077q-.056.554-.063.877t-.007.616l.028.015a3.918,3.918,0,0,1,.881-1.247,1.469,1.469,0,0,1,.966-.415,1.36,1.36,0,0,1,.217.015,1.054,1.054,0,0,1,.231.077,1.865,1.865,0,0,0-.084.562M379,217.391a.665.665,0,0,1-1.007,0,.836.836,0,0,1,0-1.108.665.665,0,0,1,1.007,0,.836.836,0,0,1,0,1.108m-1.042,3.548q-.021-.762-.091-1.424a2.609,2.609,0,0,0,1.259,0q-.07.662-.091,1.424t-.021,1.455v1.6q0,.693.021,1.455t.091,1.424a2.615,2.615,0,0,0-1.259,0q.07-.662.091-1.424t.021-1.455v-1.6q0-.693-.021-1.455" transform="translate(-273.403 -171.254)" fill="#fff"/>
    <path id="Tracciato_427" data-name="Tracciato 427" d="M522.032,214.121q-.014.6-.021,1.216T522,216.476v2.786q0,.539.007,1.147t.021,1.208q.014.6.035,1.147t.049.931a2.616,2.616,0,0,0-1.259,0q.028-.385.049-.931t.035-1.147q.014-.6.021-1.208t.007-1.147v-2.786q0-.523-.007-1.139t-.021-1.216q-.014-.6-.035-1.147t-.049-.931a2.615,2.615,0,0,0,1.259,0q-.028.385-.049.931t-.035,1.147m6.871,8.5a1.212,1.212,0,0,0,.336.531.934.934,0,0,0,.644.2,2,2,0,0,0,.3-.031,2.218,2.218,0,0,0,.329-.077v.37a4.155,4.155,0,0,1-.525.161,2.339,2.339,0,0,1-.553.069,1.591,1.591,0,0,1-1.3-.508,2.159,2.159,0,0,1-.42-1.416q0-.416.014-.9t.028-1.062q.014-.578.035-1.277t.021-1.562h-.448a4.656,4.656,0,0,0-.5.031q.014-.092.021-.177t.007-.177q0-.077-.007-.154t-.021-.154q.63.046.924.046-.014-.307-.021-.77t-.035-.954l1.161-.539h.07q-.042.585-.063,1.147t-.049,1.132q.154,0,.574-.008t.91-.039a.929.929,0,0,0-.014.169V217a.834.834,0,0,0,.014.154q-.364-.031-.8-.031h-.686c-.009.041-.019.205-.028.492s-.018.629-.028,1.023-.019.808-.028,1.239-.014.816-.014,1.154q0,.431.021.847a2.756,2.756,0,0,0,.133.746m7.892-3.964q-.014,1.124-.014,2.355,0,.692.014,1.362t.042,1.316a1.974,1.974,0,0,0-1.091,0q.028-.339.028-.662v-.662h-.028a2.763,2.763,0,0,1-.938,1.1,2.416,2.416,0,0,1-2.959-.285,2.612,2.612,0,0,1-.623-1.863q0-.816.021-1.393t.021-1.147q0-.539-.007-1.17t-.021-1.278a2.515,2.515,0,0,0,.588.077,2.473,2.473,0,0,0,.574-.077q-.071.909-.105,2.024t-.035,2.255a4.548,4.548,0,0,0,.126,1.224,1.783,1.783,0,0,0,.308.639,1.578,1.578,0,0,0,.5.408,1.47,1.47,0,0,0,.707.162,1.621,1.621,0,0,0,.98-.285,1.7,1.7,0,0,0,.574-.7q.1-.246.161-.439a2.348,2.348,0,0,0,.091-.5q.028-.308.035-.831t.007-1.432v-1.293q0-.677-.028-1.232c.1.021.2.039.294.054a1.854,1.854,0,0,0,.588,0c.093-.015.187-.033.28-.054q-.07,1.2-.084,2.324m5.177-1.824q-.014.377-.014.685l-.1.077a.618.618,0,0,0-.273-.169,1.16,1.16,0,0,0-.413-.077,1.1,1.1,0,0,0-.6.169,1.462,1.462,0,0,0-.448.454,2.272,2.272,0,0,0-.28.677,3.456,3.456,0,0,0-.1.839v1.693q0,.678.007,1.147t.014.785q.007.315.035.577a2.31,2.31,0,0,0-.56-.077,1.831,1.831,0,0,0-.294.023c-.093.016-.191.033-.294.054q.042-.569.049-1.47t.007-2.209v-.493q0-.6-.007-1.393t-.049-1.793c.1.021.2.039.294.054a1.807,1.807,0,0,0,.294.023,2.3,2.3,0,0,0,.56-.077q-.056.554-.063.878t-.007.616l.028.015a3.926,3.926,0,0,1,.882-1.247,1.468,1.468,0,0,1,.965-.415,1.357,1.357,0,0,1,.217.015,1.023,1.023,0,0,1,.231.077,1.889,1.889,0,0,0-.084.562m2.379-2.624a.665.665,0,0,1-1.007,0,.836.836,0,0,1,0-1.108.665.665,0,0,1,1.007,0,.836.836,0,0,1,0,1.108m-1.042,3.548q-.021-.762-.091-1.424a2.6,2.6,0,0,0,1.259,0q-.07.662-.091,1.424t-.021,1.454v1.6q0,.693.021,1.455t.091,1.424a2.616,2.616,0,0,0-1.259,0q.07-.662.091-1.424t.021-1.455v-1.6q0-.692-.021-1.454m4.569,1.47a6.815,6.815,0,0,0,.8.277,3.838,3.838,0,0,1,.8.323,1.725,1.725,0,0,1,.609.569,1.824,1.824,0,0,1,.245,1.016,2.316,2.316,0,0,1-.175.877,2.477,2.477,0,0,1-.5.777,2.587,2.587,0,0,1-.791.562,2.457,2.457,0,0,1-1.049.215,3.114,3.114,0,0,1-1.078-.162,4,4,0,0,1-.728-.346,4.315,4.315,0,0,0,.175-.547,2.36,2.36,0,0,0,.091-.577h.168a1.678,1.678,0,0,0,.217.339,2.183,2.183,0,0,0,.35.346,1.9,1.9,0,0,0,.462.269,1.418,1.418,0,0,0,.553.108,1.436,1.436,0,0,0,.511-.092,1.366,1.366,0,0,0,.434-.262,1.207,1.207,0,0,0,.3-.431,1.512,1.512,0,0,0,.112-.6,1.012,1.012,0,0,0-.245-.731,1.916,1.916,0,0,0-.609-.416,6.049,6.049,0,0,0-.8-.285,3.159,3.159,0,0,1-.8-.346,1.943,1.943,0,0,1-.609-.593,1.823,1.823,0,0,1-.245-1.016,2.7,2.7,0,0,1,.154-.931,2.014,2.014,0,0,1,1.175-1.216,2.611,2.611,0,0,1,.994-.177,2.211,2.211,0,0,1,.874.154q.357.155.679.277a2.187,2.187,0,0,0-.112.262q-.056.154-.1.308a2.767,2.767,0,0,0-.077.293c-.019.092-.033.169-.042.231h-.168a1.462,1.462,0,0,0-.434-.662,1.142,1.142,0,0,0-.8-.293,1.215,1.215,0,0,0-.42.077,1.139,1.139,0,0,0-.378.231,1.221,1.221,0,0,0-.28.4,1.4,1.4,0,0,0-.112.585,1.092,1.092,0,0,0,.245.762,1.705,1.705,0,0,0,.609.423m13.321-.046q-.014.308-.028.716t-.028.924q-.014.516-.014,1.193,0,.416.007.8t.035.878a2.58,2.58,0,0,0-.6-.077,2.627,2.627,0,0,0-.616.077q.042-.431.091-1.609t.049-3.255a3.263,3.263,0,0,0-.077-.723,1.7,1.7,0,0,0-.245-.585,1.212,1.212,0,0,0-.448-.392,1.468,1.468,0,0,0-.686-.146,1.594,1.594,0,0,0-.853.216,1.735,1.735,0,0,0-.546.508,1.675,1.675,0,0,0-.175.339,2.219,2.219,0,0,0-.1.515q-.036.346-.049.97t-.014,1.716q0,.339.007.623t.014.577q.007.292.021.593t.028.654a2.5,2.5,0,0,0-1.232,0q.07-.877.1-1.762t.028-1.732q0-.708-.007-1.124t-.028-.662a1.493,1.493,0,0,0-.077-.393q-.056-.146-.14-.331a1.334,1.334,0,0,0-.483-.5,1.256,1.256,0,0,0-.679-.208,1.511,1.511,0,0,0-1.35.662,3.344,3.344,0,0,0-.441,1.862v1.309q0,.693.021,1.455t.091,1.424a2.617,2.617,0,0,0-1.26,0q.07-.662.091-1.424t.021-1.455v-1.6q0-.692-.021-1.454t-.091-1.424a2.927,2.927,0,0,0,.63.077,2.718,2.718,0,0,0,.56-.077q-.042.632-.042,1.232h.028a2.288,2.288,0,0,1,2.085-1.385,2.1,2.1,0,0,1,.686.115,2.281,2.281,0,0,1,.609.316,2.017,2.017,0,0,1,.469.485,1.7,1.7,0,0,1,.266.608h.028a2.643,2.643,0,0,1,.917-1.132,2.3,2.3,0,0,1,1.322-.392,2.54,2.54,0,0,1,.853.139,1.764,1.764,0,0,1,.679.431,2,2,0,0,1,.448.754,3.387,3.387,0,0,1,.161,1.108q0,.262-.014.569m7.633,2.609a3.3,3.3,0,0,1-.791,1.185,3.052,3.052,0,0,1-1.1.662,3.647,3.647,0,0,1-2.428,0,3.063,3.063,0,0,1-1.091-.662,3.293,3.293,0,0,1-.79-1.185,5.4,5.4,0,0,1,0-3.556,3.3,3.3,0,0,1,.79-1.185,3.067,3.067,0,0,1,1.091-.662,3.654,3.654,0,0,1,2.428,0,3.056,3.056,0,0,1,1.1.662,3.305,3.305,0,0,1,.791,1.185,5.4,5.4,0,0,1,0,3.556m-1.035-3.025a3.534,3.534,0,0,0-.357-1.07,2.019,2.019,0,0,0-.672-.747,2.074,2.074,0,0,0-2.071,0,2.02,2.02,0,0,0-.672.747,3.539,3.539,0,0,0-.357,1.07,7.469,7.469,0,0,0,0,2.494,3.537,3.537,0,0,0,.357,1.07,2.016,2.016,0,0,0,.672.746,2.072,2.072,0,0,0,2.071,0,2.015,2.015,0,0,0,.672-.746,3.532,3.532,0,0,0,.357-1.07,7.448,7.448,0,0,0,0-2.494" transform="translate(-412.857 -168.076)" fill="#fff"/>
  </g>
</svg>
