<svg xmlns="http://www.w3.org/2000/svg" width="2376" height="2376" viewBox="0 0 2376 2376">
  <g id="Raggruppa_151" data-name="Raggruppa 151" transform="translate(228 649)">
    <circle id="Ellisse_55" data-name="Ellisse 55" cx="15" cy="15" r="15" transform="translate(1501 292)" fill="#464646"/>
    <circle id="Ellisse_56" data-name="Ellisse 56" cx="7.5" cy="7.5" r="7.5" transform="translate(360 853)" fill="#464646"/>
    <g id="Ellisse_80" data-name="Ellisse 80" transform="translate(355 -66)" fill="none" stroke="#464646" stroke-width="3">
      <circle cx="605" cy="605" r="605" stroke="none"/>
      <circle cx="605" cy="605" r="603.5" fill="none"/>
    </g>
    <g id="Tracciato_6858" data-name="Tracciato 6858" transform="translate(78 -343)" fill="none">
      <path d="M882,0c487.115,0,882,394.885,882,882s-394.885,882-882,882S0,1369.115,0,882,394.885,0,882,0Z" stroke="none"/>
      <path d="M 882 3 C 852.0151977539062 3 821.7765502929688 4.5269775390625 792.1237182617188 7.5382080078125 C 762.90087890625 10.506103515625 733.5369873046875 14.987548828125 704.84765625 20.8582763671875 C 676.52978515625 26.65283203125 648.1884765625 33.940185546875 620.611083984375 42.517578125 C 593.3424072265625 50.9991455078125 566.1717529296875 60.9437255859375 539.8543701171875 72.074951171875 C 513.780029296875 83.103515625 487.9287109375 95.5567626953125 463.0184326171875 109.0887451171875 C 438.2852783203125 122.5247802734375 413.9014892578125 137.3382568359375 390.5447998046875 153.1175537109375 C 367.3009033203125 168.8209228515625 344.533447265625 185.8458251953125 322.8756103515625 203.7197265625 C 301.2703857421875 221.5498046875 280.2684326171875 240.6378173828125 260.4530029296875 260.4530029296875 C 240.6378173828125 280.2684326171875 221.5498046875 301.2703857421875 203.7197265625 322.8756103515625 C 185.8458251953125 344.533447265625 168.8209228515625 367.3009033203125 153.1175537109375 390.5447998046875 C 137.3382568359375 413.9014892578125 122.5247802734375 438.2852783203125 109.0887451171875 463.0184326171875 C 95.5567626953125 487.9287109375 83.103515625 513.780029296875 72.074951171875 539.8543701171875 C 60.9437255859375 566.1717529296875 50.9991455078125 593.3424072265625 42.517578125 620.611083984375 C 33.940185546875 648.1884765625 26.65283203125 676.52978515625 20.8582763671875 704.84765625 C 14.987548828125 733.5369873046875 10.506103515625 762.90087890625 7.5382080078125 792.1237182617188 C 4.5269775390625 821.7765502929688 3 852.0151977539062 3 882 C 3 911.9848022460938 4.5269775390625 942.2234497070312 7.5382080078125 971.8762817382812 C 10.506103515625 1001.09912109375 14.987548828125 1030.463134765625 20.8582763671875 1059.15234375 C 26.65283203125 1087.47021484375 33.940185546875 1115.811279296875 42.517578125 1143.388671875 C 50.9991455078125 1170.657592773438 60.9437255859375 1197.828125 72.074951171875 1224.1455078125 C 83.103515625 1250.219970703125 95.5567626953125 1276.0712890625 109.0887451171875 1300.981567382812 C 122.5247802734375 1325.71484375 137.3382568359375 1350.098510742188 153.1175537109375 1373.454956054688 C 168.8209228515625 1396.699096679688 185.8458251953125 1419.46630859375 203.7197265625 1441.124389648438 C 221.5498046875 1462.729370117188 240.6378173828125 1483.731323242188 260.4530029296875 1503.546752929688 C 280.2684326171875 1523.362182617188 301.2703857421875 1542.449951171875 322.8756103515625 1560.2802734375 C 344.533447265625 1578.153930664062 367.3009033203125 1595.178955078125 390.5447998046875 1610.88232421875 C 413.9014892578125 1626.661743164062 438.2852783203125 1641.475219726562 463.0184326171875 1654.9111328125 C 487.9287109375 1668.443237304688 513.780029296875 1680.896484375 539.8543701171875 1691.925048828125 C 566.1717529296875 1703.056274414062 593.3424072265625 1713.000854492188 620.611083984375 1721.482421875 C 648.1884765625 1730.059814453125 676.52978515625 1737.34716796875 704.84765625 1743.141723632812 C 733.5369873046875 1749.012451171875 762.90087890625 1753.493896484375 792.1237182617188 1756.461791992188 C 821.7765502929688 1759.473022460938 852.0151977539062 1761 882 1761 C 911.9848022460938 1761 942.2234497070312 1759.473022460938 971.8762817382812 1756.461791992188 C 1001.09912109375 1753.493896484375 1030.463134765625 1749.012451171875 1059.15234375 1743.141723632812 C 1087.47021484375 1737.34716796875 1115.811279296875 1730.059814453125 1143.388671875 1721.482421875 C 1170.657592773438 1713.000854492188 1197.828125 1703.056274414062 1224.1455078125 1691.925048828125 C 1250.219970703125 1680.896484375 1276.0712890625 1668.443237304688 1300.981567382812 1654.9111328125 C 1325.71484375 1641.475219726562 1350.098510742188 1626.661743164062 1373.454956054688 1610.88232421875 C 1396.699096679688 1595.178955078125 1419.46630859375 1578.153930664062 1441.124389648438 1560.2802734375 C 1462.729370117188 1542.449951171875 1483.731323242188 1523.362182617188 1503.546752929688 1503.546752929688 C 1523.362182617188 1483.731323242188 1542.449951171875 1462.729370117188 1560.2802734375 1441.124389648438 C 1578.153930664062 1419.46630859375 1595.178955078125 1396.699096679688 1610.88232421875 1373.454956054688 C 1626.661743164062 1350.098510742188 1641.475219726562 1325.71484375 1654.9111328125 1300.981567382812 C 1668.443237304688 1276.0712890625 1680.896484375 1250.219970703125 1691.925048828125 1224.1455078125 C 1703.056274414062 1197.828125 1713.000854492188 1170.657592773438 1721.482421875 1143.388671875 C 1730.059814453125 1115.811279296875 1737.34716796875 1087.47021484375 1743.141723632812 1059.15234375 C 1749.012451171875 1030.463134765625 1753.493896484375 1001.09912109375 1756.461791992188 971.8762817382812 C 1759.473022460938 942.2234497070312 1761 911.9848022460938 1761 882 C 1761 852.0151977539062 1759.473022460938 821.7765502929688 1756.461791992188 792.1237182617188 C 1753.493896484375 762.90087890625 1749.012451171875 733.5369873046875 1743.141723632812 704.84765625 C 1737.34716796875 676.52978515625 1730.059814453125 648.1884765625 1721.482421875 620.611083984375 C 1713.000854492188 593.3424072265625 1703.056274414062 566.1717529296875 1691.925048828125 539.8543701171875 C 1680.896484375 513.780029296875 1668.443237304688 487.9287109375 1654.9111328125 463.0184326171875 C 1641.475219726562 438.2852783203125 1626.661743164062 413.9014892578125 1610.88232421875 390.5447998046875 C 1595.178955078125 367.3009033203125 1578.153930664062 344.533447265625 1560.2802734375 322.8756103515625 C 1542.449951171875 301.2703857421875 1523.362182617188 280.2684326171875 1503.546752929688 260.4530029296875 C 1483.731323242188 240.6378173828125 1462.729370117188 221.5498046875 1441.124389648438 203.7197265625 C 1419.46630859375 185.8458251953125 1396.699096679688 168.8209228515625 1373.454956054688 153.1175537109375 C 1350.098510742188 137.3382568359375 1325.71484375 122.5247802734375 1300.981567382812 109.0887451171875 C 1276.0712890625 95.5567626953125 1250.219970703125 83.103515625 1224.1455078125 72.074951171875 C 1197.828125 60.9437255859375 1170.657592773438 50.9991455078125 1143.388671875 42.517578125 C 1115.811279296875 33.940185546875 1087.47021484375 26.65283203125 1059.15234375 20.8582763671875 C 1030.463134765625 14.987548828125 1001.09912109375 10.506103515625 971.8762817382812 7.5382080078125 C 942.2234497070312 4.5269775390625 911.9848022460938 3 882 3 M 882 0 C 1369.114990234375 0 1764 394.884765625 1764 882 C 1764 1369.114990234375 1369.114990234375 1764 882 1764 C 394.884765625 1764 0 1369.114990234375 0 882 C 0 394.884765625 394.884765625 0 882 0 Z" stroke="none" fill="#464646"/>
    </g>
    <g id="Tracciato_6859" data-name="Tracciato 6859" transform="translate(-228 -649)" fill="none">
      <path d="M1188,0c656.114,0,1188,531.886,1188,1188S1844.114,2376,1188,2376,0,1844.114,0,1188,531.886,0,1188,0Z" stroke="none"/>
      <path d="M 1188 3 C 1167.719970703125 3 1147.202392578125 3.518798828125 1127.017700195312 4.5419921875 C 1106.98681640625 5.557373046875 1086.739135742188 7.09716796875 1066.837036132812 9.1181640625 C 1047.079956054688 11.124755859375 1027.127075195312 13.659912109375 1007.532348632812 16.654052734375 C 988.0732421875 19.62744140625 968.43994140625 23.133544921875 949.177978515625 27.074951171875 C 930.0411376953125 30.990966796875 910.752685546875 35.442626953125 891.84765625 40.306884765625 C 873.0579833984375 45.14111328125 854.1387939453125 50.513427734375 835.6162109375 56.274658203125 C 817.1976318359375 62.00341796875 798.6729736328125 68.271484375 780.5570068359375 74.90478515625 C 762.534423828125 81.50341796875 744.4296875 88.64208984375 726.7452392578125 96.1220703125 C 709.1431884765625 103.567138671875 691.48291015625 111.55126953125 674.2550048828125 119.852294921875 C 657.0982666015625 128.119384765625 639.9073486328125 136.923828125 623.16064453125 146.021240234375 C 606.4735107421875 155.086181640625 589.777587890625 164.686279296875 573.5364990234375 174.554443359375 C 557.3441162109375 184.393310546875 541.16796875 194.763427734375 525.4573974609375 205.377685546875 C 509.78466796875 215.9658203125 494.1531982421875 227.08154296875 478.997314453125 238.415771484375 C 463.869140625 249.729736328125 448.8076171875 261.565673828125 434.231201171875 273.59521484375 C 419.672607421875 285.610107421875 405.2059326171875 298.14111328125 391.2332763671875 310.8408203125 C 377.2694091796875 323.53271484375 363.422607421875 336.734130859375 350.0784912109375 350.0784912109375 C 336.734130859375 363.422607421875 323.53271484375 377.2694091796875 310.8408203125 391.2332763671875 C 298.14111328125 405.2059326171875 285.610107421875 419.672607421875 273.59521484375 434.231201171875 C 261.565673828125 448.8076171875 249.729736328125 463.869140625 238.415771484375 478.997314453125 C 227.08154296875 494.1531982421875 215.9658203125 509.78466796875 205.377685546875 525.4573974609375 C 194.763427734375 541.16796875 184.393310546875 557.3441162109375 174.554443359375 573.5364990234375 C 164.686279296875 589.777587890625 155.086181640625 606.4735107421875 146.021240234375 623.16064453125 C 136.923828125 639.9073486328125 128.119384765625 657.0982666015625 119.852294921875 674.2550048828125 C 111.55126953125 691.48291015625 103.567138671875 709.1431884765625 96.1220703125 726.7452392578125 C 88.64208984375 744.4296875 81.50341796875 762.534423828125 74.90478515625 780.5570068359375 C 68.271484375 798.6729736328125 62.00341796875 817.1976318359375 56.274658203125 835.6162109375 C 50.513427734375 854.1387939453125 45.14111328125 873.0579833984375 40.306884765625 891.84765625 C 35.442626953125 910.752685546875 30.990966796875 930.0411376953125 27.074951171875 949.177978515625 C 23.133544921875 968.43994140625 19.62744140625 988.0732421875 16.654052734375 1007.532348632812 C 13.659912109375 1027.127075195312 11.124755859375 1047.079956054688 9.1181640625 1066.837036132812 C 7.09716796875 1086.739135742188 5.557373046875 1106.98681640625 4.5419921875 1127.017700195312 C 3.518798828125 1147.202392578125 3 1167.719970703125 3 1188 C 3 1208.280029296875 3.518798828125 1228.79736328125 4.5419921875 1248.982299804688 C 5.557373046875 1269.01318359375 7.09716796875 1289.260864257812 9.1181640625 1309.162963867188 C 11.124755859375 1328.920043945312 13.659912109375 1348.872924804688 16.654052734375 1368.467651367188 C 19.62744140625 1387.926513671875 23.133544921875 1407.559692382812 27.074951171875 1426.822021484375 C 30.990966796875 1445.95849609375 35.442626953125 1465.247314453125 40.306884765625 1484.152099609375 C 45.14111328125 1502.942138671875 50.513427734375 1521.861206054688 56.274658203125 1540.3837890625 C 62.00341796875 1558.802368164062 68.271484375 1577.326782226562 74.90478515625 1595.442626953125 C 81.50341796875 1613.46533203125 88.64208984375 1631.5703125 96.1220703125 1649.25439453125 C 103.567138671875 1666.856689453125 111.55126953125 1684.51708984375 119.852294921875 1701.74462890625 C 128.119384765625 1718.90185546875 136.923828125 1736.09228515625 146.021240234375 1752.839111328125 C 155.086181640625 1769.526123046875 164.686279296875 1786.222412109375 174.554443359375 1802.463256835938 C 184.393310546875 1818.655517578125 194.763427734375 1834.831787109375 205.377685546875 1850.542724609375 C 215.9658203125 1866.21533203125 227.08154296875 1881.846801757812 238.415771484375 1897.002685546875 C 249.729736328125 1912.130615234375 261.565673828125 1927.1923828125 273.59521484375 1941.768798828125 C 285.610107421875 1956.327392578125 298.14111328125 1970.793823242188 310.8408203125 1984.766479492188 C 323.53271484375 1998.730590820312 336.734130859375 2012.577026367188 350.0784912109375 2025.921508789062 C 363.422607421875 2039.265869140625 377.2694091796875 2052.46728515625 391.2332763671875 2065.1591796875 C 405.2059326171875 2077.8583984375 419.672607421875 2090.3896484375 434.231201171875 2102.40478515625 C 448.8076171875 2114.434326171875 463.869140625 2126.270263671875 478.997314453125 2137.583740234375 C 494.1531982421875 2148.918212890625 509.78466796875 2160.0341796875 525.4573974609375 2170.622314453125 C 541.16796875 2181.236572265625 557.3441162109375 2191.606689453125 573.5364990234375 2201.4453125 C 589.777587890625 2211.313720703125 606.4735107421875 2220.913818359375 623.16064453125 2229.978515625 C 639.9073486328125 2239.076171875 657.0982666015625 2247.880615234375 674.2550048828125 2256.147705078125 C 691.48291015625 2264.44873046875 709.1431884765625 2272.432861328125 726.7452392578125 2279.8779296875 C 744.4296875 2287.35791015625 762.534423828125 2294.49658203125 780.5570068359375 2301.09521484375 C 798.6729736328125 2307.728515625 817.1976318359375 2313.99658203125 835.6162109375 2319.725341796875 C 854.1387939453125 2325.486572265625 873.0579833984375 2330.85888671875 891.84765625 2335.693115234375 C 910.752685546875 2340.557373046875 930.0411376953125 2345.009033203125 949.177978515625 2348.925048828125 C 968.43994140625 2352.866455078125 988.0732421875 2356.37255859375 1007.532348632812 2359.345947265625 C 1027.127075195312 2362.340087890625 1047.079956054688 2364.875244140625 1066.837036132812 2366.8818359375 C 1086.739135742188 2368.90283203125 1106.98681640625 2370.442626953125 1127.017700195312 2371.4580078125 C 1147.202392578125 2372.481201171875 1167.719970703125 2373 1188 2373 C 1208.280029296875 2373 1228.79736328125 2372.481201171875 1248.982299804688 2371.4580078125 C 1269.01318359375 2370.442626953125 1289.260864257812 2368.90283203125 1309.162963867188 2366.8818359375 C 1328.920043945312 2364.875244140625 1348.872924804688 2362.340087890625 1368.467651367188 2359.345947265625 C 1387.926513671875 2356.37255859375 1407.559692382812 2352.866455078125 1426.822021484375 2348.925048828125 C 1445.95849609375 2345.009033203125 1465.247314453125 2340.557373046875 1484.152099609375 2335.693115234375 C 1502.942138671875 2330.85888671875 1521.861206054688 2325.486572265625 1540.3837890625 2319.725341796875 C 1558.802368164062 2313.99658203125 1577.326782226562 2307.728515625 1595.442626953125 2301.09521484375 C 1613.46533203125 2294.49658203125 1631.5703125 2287.35791015625 1649.25439453125 2279.8779296875 C 1666.856689453125 2272.432861328125 1684.51708984375 2264.44873046875 1701.74462890625 2256.147705078125 C 1718.90185546875 2247.880615234375 1736.09228515625 2239.076171875 1752.839111328125 2229.978515625 C 1769.526123046875 2220.913818359375 1786.222412109375 2211.313720703125 1802.463256835938 2201.4453125 C 1818.655517578125 2191.606689453125 1834.831787109375 2181.236572265625 1850.542724609375 2170.622314453125 C 1866.21533203125 2160.0341796875 1881.846801757812 2148.918212890625 1897.002685546875 2137.583740234375 C 1912.130615234375 2126.270263671875 1927.1923828125 2114.434326171875 1941.768798828125 2102.40478515625 C 1956.327392578125 2090.3896484375 1970.793823242188 2077.8583984375 1984.766479492188 2065.1591796875 C 1998.730590820312 2052.46728515625 2012.577026367188 2039.265869140625 2025.921508789062 2025.921508789062 C 2039.265869140625 2012.577026367188 2052.46728515625 1998.730590820312 2065.1591796875 1984.766479492188 C 2077.8583984375 1970.793823242188 2090.3896484375 1956.327392578125 2102.40478515625 1941.768798828125 C 2114.434326171875 1927.1923828125 2126.270263671875 1912.130615234375 2137.583740234375 1897.002685546875 C 2148.918212890625 1881.846801757812 2160.0341796875 1866.21533203125 2170.622314453125 1850.542724609375 C 2181.236572265625 1834.831787109375 2191.606689453125 1818.655517578125 2201.4453125 1802.463256835938 C 2211.313720703125 1786.222412109375 2220.913818359375 1769.526123046875 2229.978515625 1752.839111328125 C 2239.076171875 1736.09228515625 2247.880615234375 1718.90185546875 2256.147705078125 1701.74462890625 C 2264.44873046875 1684.51708984375 2272.432861328125 1666.856689453125 2279.8779296875 1649.25439453125 C 2287.35791015625 1631.5703125 2294.49658203125 1613.46533203125 2301.09521484375 1595.442626953125 C 2307.728515625 1577.326782226562 2313.99658203125 1558.802368164062 2319.725341796875 1540.3837890625 C 2325.486572265625 1521.861206054688 2330.85888671875 1502.942138671875 2335.693115234375 1484.152099609375 C 2340.557373046875 1465.247314453125 2345.009033203125 1445.95849609375 2348.925048828125 1426.822021484375 C 2352.866455078125 1407.559692382812 2356.37255859375 1387.926513671875 2359.345947265625 1368.467651367188 C 2362.340087890625 1348.872924804688 2364.875244140625 1328.920043945312 2366.8818359375 1309.162963867188 C 2368.90283203125 1289.260864257812 2370.442626953125 1269.01318359375 2371.4580078125 1248.982299804688 C 2372.481201171875 1228.79736328125 2373 1208.280029296875 2373 1188 C 2373 1167.719970703125 2372.481201171875 1147.202392578125 2371.4580078125 1127.017700195312 C 2370.442626953125 1106.98681640625 2368.90283203125 1086.739135742188 2366.8818359375 1066.837036132812 C 2364.875244140625 1047.079956054688 2362.340087890625 1027.127075195312 2359.345947265625 1007.532348632812 C 2356.37255859375 988.0732421875 2352.866455078125 968.43994140625 2348.925048828125 949.177978515625 C 2345.009033203125 930.0411376953125 2340.557373046875 910.752685546875 2335.693115234375 891.84765625 C 2330.85888671875 873.0579833984375 2325.486572265625 854.1387939453125 2319.725341796875 835.6162109375 C 2313.99658203125 817.1976318359375 2307.728515625 798.6729736328125 2301.09521484375 780.5570068359375 C 2294.49658203125 762.534423828125 2287.35791015625 744.4296875 2279.8779296875 726.7452392578125 C 2272.432861328125 709.1431884765625 2264.44873046875 691.48291015625 2256.147705078125 674.2550048828125 C 2247.880615234375 657.0982666015625 2239.076171875 639.9073486328125 2229.978515625 623.16064453125 C 2220.913818359375 606.4735107421875 2211.313720703125 589.777587890625 2201.4453125 573.5364990234375 C 2191.606689453125 557.3441162109375 2181.236572265625 541.16796875 2170.622314453125 525.4573974609375 C 2160.0341796875 509.78466796875 2148.918212890625 494.1531982421875 2137.583740234375 478.997314453125 C 2126.270263671875 463.869140625 2114.434326171875 448.8076171875 2102.40478515625 434.231201171875 C 2090.3896484375 419.672607421875 2077.8583984375 405.2059326171875 2065.1591796875 391.2332763671875 C 2052.46728515625 377.2694091796875 2039.265869140625 363.422607421875 2025.921508789062 350.0784912109375 C 2012.577026367188 336.734130859375 1998.730590820312 323.53271484375 1984.766479492188 310.8408203125 C 1970.793823242188 298.14111328125 1956.327392578125 285.610107421875 1941.768798828125 273.59521484375 C 1927.1923828125 261.565673828125 1912.130615234375 249.729736328125 1897.002685546875 238.415771484375 C 1881.846801757812 227.08154296875 1866.21533203125 215.9658203125 1850.542724609375 205.377685546875 C 1834.831787109375 194.763427734375 1818.655517578125 184.393310546875 1802.463256835938 174.554443359375 C 1786.222412109375 164.686279296875 1769.526123046875 155.086181640625 1752.839111328125 146.021240234375 C 1736.09228515625 136.923828125 1718.90185546875 128.119384765625 1701.74462890625 119.852294921875 C 1684.51708984375 111.55126953125 1666.856689453125 103.567138671875 1649.25439453125 96.1220703125 C 1631.5703125 88.64208984375 1613.46533203125 81.50341796875 1595.442626953125 74.90478515625 C 1577.326782226562 68.271484375 1558.802368164062 62.00341796875 1540.3837890625 56.274658203125 C 1521.861206054688 50.513427734375 1502.942138671875 45.14111328125 1484.152099609375 40.306884765625 C 1465.247314453125 35.442626953125 1445.95849609375 30.990966796875 1426.822021484375 27.074951171875 C 1407.559692382812 23.133544921875 1387.926513671875 19.62744140625 1368.467651367188 16.654052734375 C 1348.872924804688 13.659912109375 1328.920043945312 11.124755859375 1309.162963867188 9.1181640625 C 1289.260864257812 7.09716796875 1269.01318359375 5.557373046875 1248.982299804688 4.5419921875 C 1228.79736328125 3.518798828125 1208.280029296875 3 1188 3 M 1188 0 C 1844.114135742188 0 2376 531.8856201171875 2376 1188 C 2376 1844.114135742188 1844.114135742188 2376 1188 2376 C 531.8856201171875 2376 0 1844.114135742188 0 1188 C 0 531.8856201171875 531.8856201171875 0 1188 0 Z" stroke="none" fill="#a09e93"/>
    </g>
    <circle id="Ellisse_82" data-name="Ellisse 82" cx="194.5" cy="194.5" r="194.5" transform="translate(1483 888)" fill="#e7424a"/>
  </g>
</svg>
