<svg xmlns="http://www.w3.org/2000/svg" width="29.695" height="29.991" viewBox="0 0 29.695 29.991">
  <g id="Raggruppa_85" data-name="Raggruppa 85" transform="translate(-22632 3156.87)">
    <path id="Tracciato_361" data-name="Tracciato 361" d="M14.848,2.13a5.5,5.5,0,1,1-5.5,5.5,5.5,5.5,0,0,1,5.5-5.5m0-2a7.5,7.5,0,1,0,7.5,7.5,7.5,7.5,0,0,0-7.5-7.5" transform="translate(22632 -3157)" fill="#605f55"/>
    <path id="Tracciato_362" data-name="Tracciato 362" d="M14.848,19A16.1,16.1,0,0,1,27.2,24.472a1.835,1.835,0,0,1,.306,2.069,3.036,3.036,0,0,1-2.833,1.58H5.022a3.036,3.036,0,0,1-2.833-1.58,1.837,1.837,0,0,1,.306-2.069A16.1,16.1,0,0,1,14.848,19m0-2A18,18,0,0,0,.957,23.193c-2.4,2.884-.013,6.928,4.065,6.928H24.674c4.078,0,6.461-4.044,4.066-6.928A18.008,18.008,0,0,0,14.848,17" transform="translate(22632 -3157)" fill="#605f55"/>
  </g>
</svg>
