<svg xmlns="http://www.w3.org/2000/svg" width="29.209" height="29.584" viewBox="0 0 29.209 29.584">
  <g id="Raggruppa_86" data-name="Raggruppa 86" transform="translate(-22682.399 3156.81)">
    <path id="Tracciato_351" data-name="Tracciato 351" d="M73.942,2.19a3.671,3.671,0,0,1,3.667,3.667v18.25a3.671,3.671,0,0,1-3.667,3.667H56.068A3.671,3.671,0,0,1,52.4,24.107V5.857A3.671,3.671,0,0,1,56.068,2.19H73.942m0-2H56.068A5.668,5.668,0,0,0,50.4,5.857v18.25a5.667,5.667,0,0,0,5.667,5.667H73.942a5.667,5.667,0,0,0,5.667-5.667V5.857A5.667,5.667,0,0,0,73.942.19" transform="translate(22632 -3157)" fill="#605f55"/>
    <line id="Linea_14" data-name="Linea 14" x2="27.377" transform="translate(22683.158 -3147.546)" fill="none" stroke="#605f55" stroke-miterlimit="10" stroke-width="2"/>
    <path id="Tracciato_352" data-name="Tracciato 352" d="M57.47,16.607a1.456,1.456,0,1,1-1.456-1.455,1.455,1.455,0,0,1,1.456,1.455" transform="translate(22632 -3157)" fill="#605f55"/>
    <path id="Tracciato_353" data-name="Tracciato 353" d="M63.561,16.607a1.455,1.455,0,1,1-1.455-1.455,1.454,1.454,0,0,1,1.455,1.455" transform="translate(22632 -3157)" fill="#605f55"/>
    <path id="Tracciato_354" data-name="Tracciato 354" d="M75.452,16.607A1.455,1.455,0,1,1,74,15.152a1.454,1.454,0,0,1,1.455,1.455" transform="translate(22632 -3157)" fill="#605f55"/>
    <path id="Tracciato_355" data-name="Tracciato 355" d="M68.18,16.054a.552.552,0,1,1-.552.553.554.554,0,0,1,.552-.553m0-2a2.553,2.553,0,1,0,2.553,2.553,2.552,2.552,0,0,0-2.553-2.553" transform="translate(22632 -3157)" fill="#605f55"/>
    <path id="Tracciato_356" data-name="Tracciato 356" d="M57.47,22.664a1.456,1.456,0,1,1-1.456-1.455,1.455,1.455,0,0,1,1.456,1.455" transform="translate(22632 -3157)" fill="#605f55"/>
    <path id="Tracciato_357" data-name="Tracciato 357" d="M63.561,22.664a1.455,1.455,0,1,1-1.455-1.455,1.454,1.454,0,0,1,1.455,1.455" transform="translate(22632 -3157)" fill="#605f55"/>
    <path id="Tracciato_358" data-name="Tracciato 358" d="M69.652,22.664A1.455,1.455,0,1,1,68.2,21.209a1.454,1.454,0,0,1,1.455,1.455" transform="translate(22632 -3157)" fill="#605f55"/>
    <path id="Tracciato_359" data-name="Tracciato 359" d="M75.452,22.664A1.455,1.455,0,1,1,74,21.209a1.454,1.454,0,0,1,1.455,1.455" transform="translate(22632 -3157)" fill="#605f55"/>
  </g>
</svg>
