<svg xmlns="http://www.w3.org/2000/svg" width="34.969" height="37.018" viewBox="0 0 34.969 37.018">
  <g id="Raggruppa_145" data-name="Raggruppa 145" transform="translate(-18484.681 2524.212)">
    <path id="Tracciato_6849" data-name="Tracciato 6849" d="M25.389,32.134a11.1,11.1,0,0,1,.189-15.84" transform="translate(18468.805 -2535.898)" fill="none" stroke="#fff" stroke-miterlimit="10" stroke-width="2.5"/>
    <path id="Tracciato_6850" data-name="Tracciato 6850" d="M93.778,15.584a11.1,11.1,0,0,1-.189,15.84" transform="translate(18416.648 -2535.379)" fill="none" stroke="#fff" stroke-miterlimit="10" stroke-width="2.5"/>
    <path id="Tracciato_6851" data-name="Tracciato 6851" d="M41.552,37.612a6.481,6.481,0,0,1,.111-9.245" transform="translate(18456.021 -2544.713)" fill="none" stroke="#fff" stroke-miterlimit="10" stroke-width="2.5"/>
    <path id="Tracciato_6852" data-name="Tracciato 6852" d="M81.467,27.954a6.481,6.481,0,0,1-.111,9.245" transform="translate(18425.58 -2544.412)" fill="none" stroke="#fff" stroke-miterlimit="10" stroke-width="2.5"/>
    <path id="Tracciato_6853" data-name="Tracciato 6853" d="M59.342,36.8a2.3,2.3,0,1,1-3.21.039A2.27,2.27,0,0,1,59.342,36.8Z" transform="translate(18444.498 -2550.399)" fill="none" stroke="#fff" stroke-miterlimit="10" stroke-width="2.5"/>
    <path id="Tracciato_6854" data-name="Tracciato 6854" d="M104.861,2.431a15.8,15.8,0,0,1,4.424,11.226,16.6,16.6,0,0,1-5.378,12" transform="translate(18409.113 -2525.775)" fill="none" stroke="#fff" stroke-miterlimit="10" stroke-width="2.5"/>
    <path id="Tracciato_6855" data-name="Tracciato 6855" d="M8.114,27.083A15.8,15.8,0,0,1,3.5,15.666,16.559,16.559,0,0,1,7.894,4.65" transform="translate(18482.432 -2527.396)" fill="none" stroke="#fff" stroke-miterlimit="10" stroke-width="2.5"/>
    <line id="Linea_54" data-name="Linea 54" y2="21.851" transform="translate(18502.121 -2510.351)" fill="none" stroke="#fff" stroke-miterlimit="10" stroke-width="2.5"/>
    <line id="Linea_55" data-name="Linea 55" x2="11.248" transform="translate(18496.498 -2488.444)" fill="none" stroke="#fff" stroke-miterlimit="10" stroke-width="2.5"/>
  </g>
</svg>
