<svg xmlns="http://www.w3.org/2000/svg" xmlns:xlink="http://www.w3.org/1999/xlink" width="31.99" height="31.991" viewBox="0 0 31.99 31.991">
  <defs>
    <clipPath id="clip-path">
      <rect id="Rettangolo_31" data-name="Rettangolo 31" width="31.991" height="31.991" transform="translate(0 -0.001)" fill="#605f55"/>
    </clipPath>
  </defs>
  <g id="Raggruppa_97" data-name="Raggruppa 97" transform="translate(0 0)">
    <g id="Raggruppa_97-2" data-name="Raggruppa 97" clip-path="url(#clip-path)">
      <path id="Tracciato_369" data-name="Tracciato 369" d="M3,8.462A3.978,3.978,0,0,0,5,9H28.991V28.991H6a3,3,0,0,1-3-3V8.462M23.993,1H5A4,4,0,0,0,1,5V25.992a5.005,5.005,0,0,0,5,5H29.991a1,1,0,0,0,1-1V8a1,1,0,0,0-1-1H5A2,2,0,0,1,5,3H22.993V6.994h2V2a1,1,0,0,0-1-1" fill="#605f55"/>
      <path id="Tracciato_370" data-name="Tracciato 370" d="M24.992,17a2,2,0,1,0,2,2,2,2,0,0,0-2-2" fill="#605f55"/>
    </g>
  </g>
</svg>
